<?xml version="1.0" encoding="UTF-8" standalone="no"?>
<svg
   xmlns:dc="http://purl.org/dc/elements/1.1/"
   xmlns:cc="http://creativecommons.org/ns#"
   xmlns:rdf="http://www.w3.org/1999/02/22-rdf-syntax-ns#"
   xmlns:svg="http://www.w3.org/2000/svg"
   xmlns="http://www.w3.org/2000/svg"
   xmlns:xlink="http://www.w3.org/1999/xlink"
   xmlns:sodipodi="http://sodipodi.sourceforge.net/DTD/sodipodi-0.dtd"
   xmlns:inkscape="http://www.inkscape.org/namespaces/inkscape"
   id="b3b4c231-bcdd-447d-a48c-3c3c5a2e58d0"
   data-name="Layer 1"
   width="300"
   viewBox="0 0 1197.3 100"
   version="1.1"
   sodipodi:docname="dogImage.svg"
   inkscape:version="0.92.3 (2405546, 2018-03-11)"
   height="75">
  <metadata
     id="metadata928">
    <rdf:RDF>
      <cc:Work
         rdf:about="">
        <dc:format>image/svg+xml</dc:format>
        <dc:type
           rdf:resource="http://purl.org/dc/dcmitype/StillImage" />
        <dc:title>Cautious dog</dc:title>
      </cc:Work>
    </rdf:RDF>
  </metadata>
  <sodipodi:namedview
     pagecolor="#ffffff"
     bordercolor="#666666"
     borderopacity="1"
     objecttolerance="10"
     gridtolerance="10"
     guidetolerance="10"
     inkscape:pageopacity="0"
     inkscape:pageshadow="2"
     inkscape:window-width="1360"
     inkscape:window-height="700"
     id="namedview926"
     showgrid="false"
     inkscape:zoom="1.4142136"
     inkscape:cx="294.0025"
     inkscape:cy="139.45359"
     inkscape:window-x="0"
     inkscape:window-y="0"
     inkscape:window-maximized="1"
     inkscape:current-layer="b3b4c231-bcdd-447d-a48c-3c3c5a2e58d0" />
  <defs
     id="defs497">
    <linearGradient
       id="a2a092df-2c92-4a00-bfa3-7775e0a35a00"
       x1="460.5"
       y1="532.56"
       x2="460.5"
       y2="81.559998"
       gradientUnits="userSpaceOnUse">
      <stop
         offset="0"
         stop-color="gray"
         stop-opacity="0.25"
         id="stop489" />
      <stop
         offset="0.54"
         stop-color="gray"
         stop-opacity="0.12"
         id="stop491" />
      <stop
         offset="1"
         stop-color="gray"
         stop-opacity="0.1"
         id="stop493" />
    </linearGradient>
    <linearGradient
       id="e02598f3-6440-4dab-b616-a11e89bded72"
       x1="698.5"
       y1="537.03003"
       x2="941.5"
       y2="537.03003"
       xlink:href="#a2a092df-2c92-4a00-bfa3-7775e0a35a00" />
    <linearGradient
       gradientUnits="userSpaceOnUse"
       y2="149.73"
       x2="600"
       y1="675.46997"
       x1="600"
       id="db2a550c-591e-4894-b9d3-8d5d16d07668">
      <stop
         id="stop1725"
         stop-opacity="0.25"
         stop-color="gray"
         offset="0" />
      <stop
         id="stop1727"
         stop-opacity="0.12"
         stop-color="gray"
         offset="0.54" />
      <stop
         id="stop1729"
         stop-opacity="0.1"
         stop-color="gray"
         offset="1" />
    </linearGradient>
    <linearGradient
       xlink:href="#db2a550c-591e-4894-b9d3-8d5d16d07668"
       gradientTransform="rotate(-18.87,7510.0092,3049.535)"
       y2="-1862.67"
       x2="1718.23"
       y1="-1648.4399"
       x1="1718.23"
       id="4f8fcfba-fdbb-4b26-8552-3147955cf323" />
    <linearGradient
       xlink:href="#db2a550c-591e-4894-b9d3-8d5d16d07668"
       gradientTransform="translate(-1271.46,2131.88)"
       y2="-1814.78"
       x2="1731.89"
       y1="-1787.45"
       x1="1731.89"
       id="dd4779f0-15a4-44e5-a69d-3a5ddc77084e" />
    <linearGradient
       xlink:href="#db2a550c-591e-4894-b9d3-8d5d16d07668"
       gradientTransform="translate(-1237.95,2101.1)"
       y2="-1746.4399"
       x2="1763.79"
       y1="-1719.1"
       x1="1763.79"
       id="d04ddce0-3f41-4397-9117-6160f1bd048f" />
    <linearGradient
       xlink:href="#db2a550c-591e-4894-b9d3-8d5d16d07668"
       gradientTransform="translate(-1234.6,2166.35)"
       y2="-1773.78"
       x2="1659"
       y1="-1746.4399"
       x1="1659"
       id="f02005c1-e575-4f11-b4af-b596cf5ff02c" />
    <linearGradient
       xlink:href="#db2a550c-591e-4894-b9d3-8d5d16d07668"
       gradientTransform="translate(-1200.26,2138.19)"
       y2="-1705.4399"
       x2="1686.33"
       y1="-1678.1"
       x1="1686.33"
       id="4cd98024-326e-4cea-b9b4-692fab1de8c2" />
    <linearGradient
       xlink:href="#db2a550c-591e-4894-b9d3-8d5d16d07668"
       y2="202.23"
       x2="752.69"
       y1="339.56"
       x1="752.69"
       id="a41fb154-11c8-4cd9-8f33-d489da05fd4e" />
    <linearGradient
       xlink:href="#db2a550c-591e-4894-b9d3-8d5d16d07668"
       y2="186.53999"
       x2="676.63"
       y1="422.03"
       x1="676.63"
       id="925e17af-70c9-480d-b073-e6b9c46b2381" />
    <linearGradient
       gradientUnits="userSpaceOnUse"
       y2="295.41"
       x2="670.37"
       y1="305.53"
       x1="670.37"
       id="f9701715-69c0-451a-ad22-82cf5298eaa1"
       gradientTransform="matrix(0.84838374,0,0,0.84838374,-5911.1244,-1052.577)">
      <stop
         id="stop1739"
         stop-color="#fff"
         offset="0" />
      <stop
         id="stop1741"
         offset="1" />
    </linearGradient>
    <linearGradient
       xlink:href="#db2a550c-591e-4894-b9d3-8d5d16d07668"
       y2="59.200001"
       x2="612.65997"
       y1="683.47998"
       x1="612.65997"
       id="8dab11fa-ac49-4c56-908f-cefe97f9b2b4" />
    <linearGradient
       xlink:href="#db2a550c-591e-4894-b9d3-8d5d16d07668"
       gradientTransform="translate(-521.72,1157.6)"
       y2="-425.03"
       x2="1186.13"
       y1="-329.85001"
       x1="1186.13"
       id="3fea0823-e41c-4116-84a8-8769a514ae7c" />
    <linearGradient
       xlink:href="#db2a550c-591e-4894-b9d3-8d5d16d07668"
       gradientTransform="rotate(-18.54,4471.5654,1799.515)"
       y2="-539.81"
       x2="1083.0699"
       y1="-358.53"
       x1="1083.0699"
       id="fd576e1c-2aeb-4e99-9d21-0fe2a9aa074f" />
  </defs>
  <title
     id="title499">Cautious dog</title>
  <ellipse
     cx="299.41318"
     cy="54.225254"
     rx="291.60071"
     ry="142.79216"
     id="ellipse505"
     style="fill:#1890ff;stroke-width:0.66187149" />
  <g
     id="g509"
     transform="matrix(0.66187147,0,0,0.66187147,-138.23595,-155.76443)"
     style="opacity:0.5">
    <path
       d="m 941.5,623.15 -7.87,-11.8 -15.63,-51.67 -6.43,-22.84 h -6.54 a 11.84,11.84 0 0 0 0.11,-1.48 10.38,10.38 0 0 0 -5.06,-8.91 8.89,8.89 0 0 0 0.06,-1 10.41,10.41 0 0 0 -2.3,-6.52 v 0 a 10.09,10.09 0 0 0 -1.6,-1.6 h -0.07 c -0.26,-0.21 -0.53,-0.4 -0.8,-0.58 l -0.23,-0.14 c -0.23,-0.14 -0.47,-0.27 -0.71,-0.39 l -0.32,-0.16 -0.68,-0.29 -0.36,-0.13 c -0.23,-0.08 -0.47,-0.14 -0.7,-0.21 l -0.39,-0.09 c -0.25,-0.06 -0.5,-0.1 -0.76,-0.14 h -0.35 a 10.92,10.92 0 0 0 -1.15,-0.07 10.31,10.31 0 0 0 -6.23,2.09 10.37,10.37 0 0 0 -1.67,-3 v 0 a 11,11 0 0 0 -1.6,-1.6 0.18,0.18 0 0 1 -0.07,0 q -0.39,-0.3 -0.81,-0.57 l -0.23,-0.15 c -0.23,-0.14 -0.46,-0.27 -0.7,-0.39 l -0.32,-0.15 c -0.22,-0.11 -0.45,-0.2 -0.68,-0.29 l -0.37,-0.14 -0.7,-0.2 -0.38,-0.1 a 6.71,6.71 0 0 0 -0.76,-0.13 l -0.35,-0.06 a 10.93,10.93 0 0 0 -1.15,-0.06 c -0.41,0 -0.82,0 -1.22,0.07 a 10.38,10.38 0 0 0 -1.08,-11.4 v 0 a 10.53,10.53 0 0 0 -1.4,-1.65 10.37,10.37 0 0 0 0.64,-13.75 v 0 a 10.09,10.09 0 0 0 -1.6,-1.6 L 869,482 c -0.26,-0.21 -0.53,-0.4 -0.8,-0.58 l -0.23,-0.14 c -0.23,-0.14 -0.47,-0.27 -0.71,-0.39 l -0.31,-0.16 -0.69,-0.29 -0.36,-0.13 c -0.23,-0.08 -0.47,-0.14 -0.7,-0.21 -0.23,-0.07 -0.25,-0.07 -0.38,-0.09 -0.13,-0.02 -0.51,-0.1 -0.77,-0.14 l -0.35,-0.05 a 10.92,10.92 0 0 0 -1.15,-0.07 c -0.27,0 -0.55,0 -0.82,0 -0.21,-0.33 -0.43,-0.64 -0.67,-1 v 0 a 11,11 0 0 0 -1.6,-1.6 0.18,0.18 0 0 1 -0.07,-0.05 9.08,9.08 0 0 0 -0.81,-0.57 l -0.23,-0.15 c -0.23,-0.14 -0.46,-0.27 -0.7,-0.39 l -0.32,-0.15 c -0.22,-0.11 -0.45,-0.2 -0.68,-0.29 l -0.37,-0.14 -0.7,-0.2 -0.38,-0.1 c -0.25,-0.06 -0.51,-0.1 -0.76,-0.14 L 854,475 A 10.93,10.93 0 0 0 852.85,474.94 10.29,10.29 0 0 0 844,480 v 0 c -0.26,-0.06 -0.51,-0.1 -0.77,-0.14 l -0.35,-0.05 a 10.92,10.92 0 0 0 -1.15,-0.07 h -0.51 a 10.44,10.44 0 0 0 -1.78,-9.75 v 0 a 11,11 0 0 0 -1.6,-1.6 l -0.07,-0.05 a 9.19,9.19 0 0 0 -0.81,-0.58 l -0.23,-0.14 c -0.23,-0.14 -0.46,-0.27 -0.7,-0.39 l -0.32,-0.16 -0.68,-0.29 -0.37,-0.13 c -0.23,-0.08 -0.46,-0.14 -0.7,-0.21 l -0.38,-0.09 c -0.25,-0.06 -0.51,-0.1 -0.76,-0.14 l -0.36,-0.05 a 10.57,10.57 0 0 0 -1.14,-0.07 10.41,10.41 0 0 0 -9,5.26 c -0.18,-0.13 -0.35,-0.26 -0.54,-0.38 l -0.23,-0.14 a 8.13,8.13 0 0 0 -0.71,-0.4 l -0.31,-0.15 c -0.22,-0.11 -0.45,-0.2 -0.68,-0.29 l -0.25,-0.1 a 10.4,10.4 0 0 0 2.25,-15.12 v 0 a 10.09,10.09 0 0 0 -1.6,-1.6 h -0.07 a 9,9 0 0 0 -0.8,-0.58 l -0.23,-0.14 c -0.23,-0.14 -0.47,-0.27 -0.71,-0.4 l -0.31,-0.15 -0.69,-0.29 -0.36,-0.13 c -0.23,-0.08 -0.46,-0.14 -0.7,-0.21 l -0.38,-0.1 -0.77,-0.13 h -0.35 a 10.92,10.92 0 0 0 -1.15,-0.07 10.41,10.41 0 0 0 -10.41,10.42 c 0,0.09 0,0.19 0,0.28 -0.23,0.06 -0.47,0.11 -0.7,0.18 a 10.43,10.43 0 0 0 -6.85,6.85 10.25,10.25 0 0 0 -0.47,3.1 10.93,10.93 0 0 0 0.06,1.15 l 0.06,0.35 v 0.24 l -0.12,-0.07 -0.23,-0.14 -0.7,-0.4 -0.32,-0.15 -0.68,-0.29 -0.37,-0.13 a 7.15,7.15 0 0 0 -0.7,-0.21 l -0.38,-0.1 -0.76,-0.13 -0.35,-0.05 a 10.92,10.92 0 0 0 -1.15,-0.07 10.42,10.42 0 0 0 -10.42,10.42 10.73,10.73 0 0 0 0.07,1.14 c 0,0.12 0,0.24 0,0.35 0,0.26 0.08,0.52 0.14,0.77 0.06,0.25 0.06,0.25 0.1,0.38 0.04,0.13 0.13,0.47 0.2,0.7 l 0.14,0.36 c 0.09,0.24 0.18,0.46 0.29,0.69 l 0.15,0.31 c 0.12,0.24 0.25,0.48 0.39,0.71 l 0.15,0.23 a 8.93,8.93 0 0 0 0.57,0.8 l 0.05,0.07 0.15,0.19 h -0.18 c -0.25,-0.06 -0.51,-0.1 -0.77,-0.14 l -0.35,-0.05 a 10.92,10.92 0 0 0 -1.15,-0.07 10.41,10.41 0 0 0 -9.94,7.32 10.72,10.72 0 0 0 -0.35,1.61 h -0.08 l -0.24,-0.15 c -0.23,-0.14 -0.46,-0.27 -0.7,-0.39 l -0.32,-0.15 c -0.22,-0.11 -0.45,-0.2 -0.68,-0.29 l -0.36,-0.14 -0.7,-0.2 -0.38,-0.1 c -0.26,-0.06 -0.51,-0.1 -0.77,-0.14 l -0.35,-0.05 a 10.92,10.92 0 0 0 -1.15,-0.07 10.42,10.42 0 0 0 -10.41,10.42 10.93,10.93 0 0 0 0.06,1.15 l 0.06,0.35 c 0,0.25 0.08,0.51 0.13,0.76 0.05,0.25 0.07,0.26 0.1,0.38 0.03,0.12 0.13,0.48 0.21,0.71 0.08,0.23 0.08,0.24 0.13,0.36 0.05,0.12 0.18,0.46 0.29,0.68 l 0.15,0.32 c 0.12,0.24 0.26,0.47 0.4,0.7 a 1.76,1.76 0 0 0 0.14,0.23 q 0.27,0.42 0.57,0.81 l 0.06,0.07 v 0.06 a 10.36,10.36 0 0 0 -1.54,5.44 10.74,10.74 0 0 0 0.06,1.14 l 0.06,0.35 c 0,0.26 0.08,0.52 0.13,0.77 0.05,0.25 0.07,0.25 0.1,0.38 0.03,0.13 0.13,0.47 0.21,0.7 0.08,0.23 0.08,0.24 0.13,0.36 0.05,0.12 0.19,0.47 0.29,0.69 l 0.15,0.31 a 8.13,8.13 0 0 0 0.4,0.71 c 0,0.08 0.09,0.16 0.14,0.23 v 0 a 10.38,10.38 0 0 0 -9.21,7.28 10.25,10.25 0 0 0 -0.47,3.1 10.93,10.93 0 0 0 0.06,1.15 l 0.06,0.35 a 6.71,6.71 0 0 0 0.13,0.76 l 0.09,0.37 h -15.59 l -22.47,74.2 -9.29,11.95 z m -139.88,-117.69 -0.2,-0.31 0.48,-0.13 z m 48.81,-9.66 0.17,-0.29 0.38,0.08 c -0.18,0.07 -0.37,0.13 -0.55,0.21 z"
       transform="translate(-139.5,-183.72)"
       id="path507"
       style="fill:url(#e02598f3-6440-4dab-b616-a11e89bded72)"
       inkscape:connector-curvature="0" />
  </g>
  <circle
     cx="263.36115"
     cy="96.395386"
     r="6.5260525"
     id="circle511"
     style="fill:#795548;stroke-width:0.66187149" />
  <path
     d="m 257.8478,97.401401 a 6.5128152,6.5128152 0 0 1 10.58994,-5.08317 6.5194339,6.5194339 0 1 0 -9.16692,9.160309 6.4598655,6.4598655 0 0 1 -1.42302,-4.077139 z"
     id="path513"
     inkscape:connector-curvature="0"
     style="opacity:0.05;fill:#ffffff;stroke-width:0.66187149" />
  <circle
     cx="285.94421"
     cy="97.904449"
     r="6.5260525"
     id="circle515"
     style="fill:#795548;stroke-width:0.66187149" />
  <path
     d="m 280.39775,98.903851 a 6.5194339,6.5194339 0 0 1 10.58995,-5.08317 6.5194339,6.5194339 0 1 0 -9.16692,9.166909 6.5194339,6.5194339 0 0 1 -1.42303,-4.083739 z"
     id="path517"
     inkscape:connector-curvature="0"
     style="opacity:0.05;fill:#ffffff;stroke-width:0.66187149" />
  <circle
     cx="298.98975"
     cy="98.90387"
     r="6.5260525"
     id="circle519"
     style="fill:#795548;stroke-width:0.66187149" />
  <path
     d="m 293.46971,99.903281 a 6.5128152,6.5128152 0 0 1 10.58995,-5.08317 6.5194339,6.5194339 0 1 0 -9.16691,9.166909 6.5326714,6.5326714 0 0 1 -1.42304,-4.083739 z"
     id="path521"
     inkscape:connector-curvature="0"
     style="opacity:0.05;fill:#ffffff;stroke-width:0.66187149" />
  <circle
     cx="305.50916"
     cy="96.395386"
     r="6.5260525"
     id="circle523"
     style="fill:#795548;stroke-width:0.66187149" />
  <path
     d="m 299.98915,97.401401 a 6.5194339,6.5194339 0 0 1 10.58995,-5.08317 6.5194339,6.5194339 0 1 0 -9.16692,9.160309 6.4664842,6.4664842 0 0 1 -1.42303,-4.077139 z"
     id="path525"
     inkscape:connector-curvature="0"
     style="opacity:0.05;fill:#ffffff;stroke-width:0.66187149" />
  <circle
     cx="356.18866"
     cy="96.395386"
     r="6.5260525"
     id="circle527"
     style="fill:#795548;stroke-width:0.66187149" />
  <path
     d="m 350.66865,97.401401 a 6.5128152,6.5128152 0 0 1 10.58995,-5.08317 6.5194339,6.5194339 0 1 0 -9.16693,9.160309 6.4995777,6.4995777 0 0 1 -1.42302,-4.077139 z"
     id="path529"
     inkscape:connector-curvature="0"
     style="opacity:0.05;fill:#ffffff;stroke-width:0.66187149" />
  <circle
     cx="330.60065"
     cy="95.898987"
     r="6.5260525"
     id="circle531"
     style="fill:#795548;stroke-width:0.66187149" />
  <path
     d="m 325.08069,96.898381 a 6.5194339,6.5194339 0 0 1 10.58995,-5.08317 6.5194339,6.5194339 0 1 0 -9.16691,9.166919 6.4797217,6.4797217 0 0 1 -1.42304,-4.083749 z"
     id="path533"
     inkscape:connector-curvature="0"
     style="opacity:0.05;fill:#ffffff;stroke-width:0.66187149" />
  <circle
     cx="272.89868"
     cy="90.378967"
     r="6.5260525"
     id="circle535"
     style="fill:#795548;stroke-width:0.66187149" />
  <path
     d="m 267.37874,91.378371 a 6.5194339,6.5194339 0 0 1 10.58995,-5.08317 6.5194339,6.5194339 0 1 0 -9.16693,9.16692 6.5194339,6.5194339 0 0 1 -1.42302,-4.08375 z"
     id="path537"
     inkscape:connector-curvature="0"
     style="opacity:0.05;fill:#ffffff;stroke-width:0.66187149" />
  <circle
     cx="325.58374"
     cy="76.830475"
     r="6.5260525"
     id="circle539"
     style="fill:#795548;stroke-width:0.66187149" />
  <path
     d="m 320.06371,77.829861 a 6.5194339,6.5194339 0 0 1 10.63628,-5.06331 6.5194339,6.5194339 0 1 0 -9.16692,9.16692 6.4797217,6.4797217 0 0 1 -1.46936,-4.10361 z"
     id="path541"
     inkscape:connector-curvature="0"
     style="opacity:0.05;fill:#ffffff;stroke-width:0.66187149" />
  <circle
     cx="305.50916"
     cy="61.779484"
     r="6.5260525"
     id="circle543"
     style="fill:#795548;stroke-width:0.66187149" />
  <circle
     cx="312.00867"
     cy="51.738895"
     r="6.5260525"
     id="circle545"
     style="fill:#795548;stroke-width:0.66187149" />
  <path
     d="m 299.98915,62.778911 a 6.5260527,6.5260527 0 0 1 10.58995,-5.08317 6.5194339,6.5194339 0 1 0 -9.16692,9.16691 6.4863404,6.4863404 0 0 1 -1.42303,-4.08374 z"
     id="path547"
     inkscape:connector-curvature="0"
     style="opacity:0.05;fill:#ffffff;stroke-width:0.66187149" />
  <circle
     cx="284.43515"
     cy="66.796509"
     r="6.5260525"
     id="circle549"
     style="fill:#795548;stroke-width:0.66187149" />
  <path
     d="m 278.92179,67.795891 a 6.5194339,6.5194339 0 0 1 10.58993,-5.08317 6.5194339,6.5194339 0 1 0 -9.16691,9.16692 6.4797217,6.4797217 0 0 1 -1.42302,-4.08375 z"
     id="path551"
     inkscape:connector-curvature="0"
     style="opacity:0.05;fill:#ffffff;stroke-width:0.66187149" />
  <circle
     cx="270.8053"
     cy="71.195129"
     r="4.7529063"
     id="circle553"
     style="fill:#795548;stroke-width:0.48203915" />
  <path
     d="m 266.78504,71.927851 a 4.7529063,4.7529063 0 0 1 7.71264,-3.70688 4.7480858,4.7480858 0 1 0 -6.67625,6.67624 4.7191635,4.7191635 0 0 1 -1.03639,-2.96936 z"
     id="path555"
     inkscape:connector-curvature="0"
     style="opacity:0.05;fill:#ffffff;stroke-width:0.48203915" />
  <circle
     cx="310.52612"
     cy="79.84198"
     r="6.5260525"
     id="circle557"
     style="fill:#795548;stroke-width:0.66187149" />
  <path
     d="m 305.01276,80.841391 a 6.5194339,6.5194339 0 0 1 10.58995,-5.08319 6.5194339,6.5194339 0 1 0 -9.16693,9.16693 6.4797217,6.4797217 0 0 1 -1.42302,-4.08374 z"
     id="path559"
     inkscape:connector-curvature="0"
     style="opacity:0.05;fill:#ffffff;stroke-width:0.66187149" />
  <circle
     cx="325.08063"
     cy="48.734013"
     r="6.5260525"
     id="circle561"
     style="fill:#795548;stroke-width:0.66187149" />
  <path
     d="m 319.56069,49.733421 a 6.5194339,6.5194339 0 0 1 10.58994,-5.08317 6.5194339,6.5194339 0 1 0 -9.16691,9.16691 6.5194339,6.5194339 0 0 1 -1.42303,-4.08374 z"
     id="path563"
     inkscape:connector-curvature="0"
     style="opacity:0.05;fill:#ffffff;stroke-width:0.66187149" />
  <circle
     cx="309.02368"
     cy="42.207981"
     r="6.5260525"
     id="circle565"
     style="fill:#795548;stroke-width:0.66187149" />
  <path
     d="m 303.50369,43.213991 a 6.5194339,6.5194339 0 0 1 10.58994,-5.08979 6.5194339,6.5194339 0 1 0 -9.16692,9.16691 6.5128152,6.5128152 0 0 1 -1.42302,-4.07712 z"
     id="path567"
     inkscape:connector-curvature="0"
     style="opacity:0.05;fill:#ffffff;stroke-width:0.66187149" />
  <circle
     cx="292.46362"
     cy="43.717045"
     r="6.5260525"
     id="circle569"
     style="fill:#795548;stroke-width:0.66187149" />
  <path
     d="m 286.94366,44.716441 a 6.5260527,6.5260527 0 0 1 10.58995,-5.08318 6.5194339,6.5194339 0 1 0 -9.16693,9.16692 6.4863404,6.4863404 0 0 1 -1.42302,-4.08374 z"
     id="path571"
     inkscape:connector-curvature="0"
     style="opacity:0.05;fill:#ffffff;stroke-width:0.66187149" />
  <circle
     cx="292.46362"
     cy="54.254002"
     r="6.5260525"
     id="circle573"
     style="fill:#795548;stroke-width:0.66187149" />
  <path
     d="m 286.94366,55.253431 a 6.5260527,6.5260527 0 0 1 10.58995,-5.08317 6.5194339,6.5194339 0 1 0 -9.16693,9.16691 6.4863404,6.4863404 0 0 1 -1.42302,-4.08374 z"
     id="path575"
     inkscape:connector-curvature="0"
     style="opacity:0.05;fill:#ffffff;stroke-width:0.66187149" />
  <circle
     cx="319.56067"
     cy="70.807434"
     r="6.5260525"
     id="circle577"
     style="fill:#795548;stroke-width:0.66187149" />
  <path
     d="m 314.04068,71.813451 a 6.5128152,6.5128152 0 0 1 10.58994,-5.08317 6.5194339,6.5194339 0 1 0 -9.15368,9.1603 6.5128152,6.5128152 0 0 1 -1.43626,-4.07713 z"
     id="path579"
     inkscape:connector-curvature="0"
     style="opacity:0.05;fill:#ffffff;stroke-width:0.66187149" />
  <circle
     cx="327.08612"
     cy="67.2995"
     r="6.5260525"
     id="circle581"
     style="fill:#795548;stroke-width:0.66187149" />
  <path
     d="m 321.56615,68.298911 a 6.5194339,6.5194339 0 0 1 10.58995,-5.08317 6.5194339,6.5194339 0 1 0 -9.1603,9.16692 6.4863404,6.4863404 0 0 1 -1.42965,-4.08375 z"
     id="path583"
     inkscape:connector-curvature="0"
     style="opacity:0.05;fill:#ffffff;stroke-width:0.66187149" />
  <circle
     cx="284.43515"
     cy="89.875916"
     r="6.5260525"
     id="circle585"
     style="fill:#795548;stroke-width:0.66187149" />
  <circle
     cx="284.43515"
     cy="89.875916"
     r="6.5260525"
     id="circle587"
     style="opacity:0.1;fill:#ffffff;stroke-width:0.66187149" />
  <path
     d="m 278.92179,90.875351 a 6.5194339,6.5194339 0 0 1 10.58993,-5.08317 6.5194339,6.5194339 0 1 0 -9.16691,9.16692 6.4797217,6.4797217 0 0 1 -1.42302,-4.08375 z"
     id="path589"
     inkscape:connector-curvature="0"
     style="opacity:0.05;fill:#ffffff;stroke-width:0.66187149" />
  <circle
     cx="305.01276"
     cy="86.361389"
     r="6.5260525"
     id="circle591"
     style="fill:#795548;stroke-width:0.66187149" />
  <circle
     cx="305.01276"
     cy="86.361389"
     r="6.5260525"
     id="circle593"
     style="opacity:0.1;fill:#ffffff;stroke-width:0.66187149" />
  <path
     d="m 299.49275,87.367441 a 6.5128152,6.5128152 0 0 1 10.58995,-5.08319 6.5194339,6.5194339 0 1 0 -9.16693,9.16031 6.4797217,6.4797217 0 0 1 -1.42302,-4.07712 z"
     id="path595"
     inkscape:connector-curvature="0"
     style="opacity:0.05;fill:#ffffff;stroke-width:0.66187149" />
  <circle
     cx="297.48059"
     cy="92.38446"
     r="6.5260525"
     id="circle597"
     style="fill:#795548;stroke-width:0.66187149" />
  <circle
     cx="297.48059"
     cy="92.38446"
     r="6.5260525"
     id="circle599"
     style="opacity:0.1;fill:#ffffff;stroke-width:0.66187149" />
  <path
     d="m 291.96727,93.383841 a 6.5194339,6.5194339 0 0 1 10.58994,-5.08317 6.5194339,6.5194339 0 1 0 -9.16692,9.16692 6.4797217,6.4797217 0 0 1 -1.42302,-4.08375 z"
     id="path601"
     inkscape:connector-curvature="0"
     style="opacity:0.05;fill:#ffffff;stroke-width:0.66187149" />
  <circle
     cx="272.89868"
     cy="97.401428"
     r="6.5260525"
     id="circle603"
     style="fill:#795548;stroke-width:0.66187149" />
  <circle
     cx="272.89868"
     cy="97.401428"
     r="6.5260525"
     id="circle605"
     style="opacity:0.1;fill:#ffffff;stroke-width:0.66187149" />
  <path
     d="m 267.37874,98.407451 a 6.5194339,6.5194339 0 0 1 10.58995,-5.0898 6.5194339,6.5194339 0 1 0 -9.15368,9.166929 6.5128152,6.5128152 0 0 1 -1.43627,-4.077129 z"
     id="path607"
     inkscape:connector-curvature="0"
     style="opacity:0.05;fill:#ffffff;stroke-width:0.66187149" />
  <circle
     cx="279.41818"
     cy="92.38446"
     r="6.5260525"
     id="circle609"
     style="fill:#795548;stroke-width:0.66187149" />
  <circle
     cx="279.41818"
     cy="92.38446"
     r="6.5260525"
     id="circle611"
     style="opacity:0.1;fill:#ffffff;stroke-width:0.66187149" />
  <path
     d="m 273.89818,93.383841 a 6.5194339,6.5194339 0 0 1 10.58994,-5.08317 6.5194339,6.5194339 0 1 0 -9.16029,9.16692 6.4863404,6.4863404 0 0 1 -1.42965,-4.08375 z"
     id="path613"
     inkscape:connector-curvature="0"
     style="opacity:0.05;fill:#ffffff;stroke-width:0.66187149" />
  <circle
     cx="276.65237"
     cy="74.848999"
     r="4.7529063"
     id="circle615"
     style="fill:#795548;stroke-width:0.48203915" />
  <circle
     cx="276.65237"
     cy="74.848999"
     r="4.7529063"
     id="circle617"
     style="opacity:0.1;fill:#ffffff;stroke-width:0.48203915" />
  <path
     d="m 272.63217,75.581711 a 4.7432654,4.7432654 0 0 1 7.71264,-3.70207 4.7480858,4.7480858 0 1 0 -6.67142,6.67142 4.7191635,4.7191635 0 0 1 -1.04122,-2.96935 z"
     id="path619"
     inkscape:connector-curvature="0"
     style="opacity:0.05;fill:#ffffff;stroke-width:0.48203915" />
  <circle
     cx="291.96722"
     cy="71.310425"
     r="6.5260525"
     id="circle621"
     style="fill:#795548;stroke-width:0.66187149" />
  <circle
     cx="291.96722"
     cy="71.310425"
     r="6.5260525"
     id="circle623"
     style="opacity:0.1;fill:#ffffff;stroke-width:0.66187149" />
  <path
     d="m 286.44727,72.316471 a 6.5194339,6.5194339 0 0 1 10.58993,-5.08979 6.5194339,6.5194339 0 1 0 -9.16692,9.16693 6.4797217,6.4797217 0 0 1 -1.42301,-4.07714 z"
     id="path625"
     inkscape:connector-curvature="0"
     style="opacity:0.05;fill:#ffffff;stroke-width:0.66187149" />
  <circle
     cx="314.04065"
     cy="95.898987"
     r="6.5260525"
     id="circle627"
     style="fill:#795548;stroke-width:0.66187149" />
  <circle
     cx="314.04065"
     cy="95.898987"
     r="6.5260525"
     id="circle629"
     style="opacity:0.1;fill:#ffffff;stroke-width:0.66187149" />
  <path
     d="m 308.52067,96.898381 a 6.5194339,6.5194339 0 0 1 10.58994,-5.08317 6.5194339,6.5194339 0 1 0 -9.16029,9.166919 6.4863404,6.4863404 0 0 1 -1.42965,-4.083749 z"
     id="path631"
     inkscape:connector-curvature="0"
     style="opacity:0.05;fill:#ffffff;stroke-width:0.66187149" />
  <circle
     cx="332.10315"
     cy="75.824402"
     r="6.5260525"
     id="circle633"
     style="fill:#795548;stroke-width:0.66187149" />
  <circle
     cx="332.10315"
     cy="75.824402"
     r="6.5260525"
     id="circle635"
     style="opacity:0.1;fill:#ffffff;stroke-width:0.66187149" />
  <path
     d="m 326.58315,76.830431 a 6.5128152,6.5128152 0 0 1 10.58994,-5.08317 6.5194339,6.5194339 0 1 0 -9.12058,9.1603 6.4797217,6.4797217 0 0 1 -1.46936,-4.07713 z"
     id="path637"
     inkscape:connector-curvature="0"
     style="opacity:0.05;fill:#ffffff;stroke-width:0.66187149" />
  <circle
     cx="332.10315"
     cy="45.722507"
     r="6.5260525"
     id="circle639"
     style="fill:#795548;stroke-width:0.66187149" />
  <circle
     cx="332.10315"
     cy="45.722507"
     r="6.5260525"
     id="circle641"
     style="opacity:0.1;fill:#ffffff;stroke-width:0.66187149" />
  <path
     d="m 326.58315,46.721911 a 6.5194339,6.5194339 0 0 1 10.58994,-5.08317 6.5194339,6.5194339 0 1 0 -9.12058,9.16691 6.4863404,6.4863404 0 0 1 -1.46936,-4.08374 z"
     id="path643"
     inkscape:connector-curvature="0"
     style="opacity:0.05;fill:#ffffff;stroke-width:0.66187149" />
  <circle
     cx="338.62921"
     cy="58.264927"
     r="6.5260525"
     id="circle645"
     style="fill:#795548;stroke-width:0.66187149" />
  <circle
     cx="338.62921"
     cy="58.264927"
     r="6.5260525"
     id="circle647"
     style="opacity:0.1;fill:#ffffff;stroke-width:0.66187149" />
  <path
     d="m 333.1092,59.270981 a 6.5194339,6.5194339 0 0 1 10.58995,-5.08978 6.5194339,6.5194339 0 1 0 -9.16693,9.16691 6.4797217,6.4797217 0 0 1 -1.42302,-4.07713 z"
     id="path649"
     inkscape:connector-curvature="0"
     style="opacity:0.05;fill:#ffffff;stroke-width:0.66187149" />
  <circle
     cx="345.14862"
     cy="67.795898"
     r="6.5260525"
     id="circle651"
     style="fill:#795548;stroke-width:0.66187149" />
  <circle
     cx="345.14862"
     cy="67.795898"
     r="6.5260525"
     id="circle653"
     style="opacity:0.1;fill:#ffffff;stroke-width:0.66187149" />
  <path
     d="m 339.62863,68.795311 a 6.5128152,6.5128152 0 0 1 10.58995,-5.08317 6.5194339,6.5194339 0 1 0 -9.1603,9.1603 6.4664842,6.4664842 0 0 1 -1.42965,-4.07713 z"
     id="path655"
     inkscape:connector-curvature="0"
     style="opacity:0.05;fill:#ffffff;stroke-width:0.66187149" />
  <circle
     cx="314.04065"
     cy="56.762486"
     r="6.5260525"
     id="circle657"
     style="fill:#795548;stroke-width:0.66187149" />
  <circle
     cx="314.04065"
     cy="56.762486"
     r="6.5260525"
     id="circle659"
     style="opacity:0.1;fill:#ffffff;stroke-width:0.66187149" />
  <path
     d="m 308.52067,57.761931 a 6.5194339,6.5194339 0 0 1 10.58994,-5.08319 6.5194339,6.5194339 0 1 0 -9.16029,9.16693 6.4863404,6.4863404 0 0 1 -1.42965,-4.08374 z"
     id="path661"
     inkscape:connector-curvature="0"
     style="opacity:0.05;fill:#ffffff;stroke-width:0.66187149" />
  <circle
     cx="294.47571"
     cy="61.779484"
     r="6.5260525"
     id="circle663"
     style="fill:#795548;stroke-width:0.66187149" />
  <circle
     cx="294.47571"
     cy="61.779484"
     r="6.5260525"
     id="circle665"
     style="opacity:0.1;fill:#ffffff;stroke-width:0.66187149" />
  <path
     d="m 288.95575,62.778911 a 6.5194339,6.5194339 0 0 1 10.58994,-5.08317 6.5194339,6.5194339 0 1 0 -9.16691,9.16691 6.4797217,6.4797217 0 0 1 -1.42303,-4.08374 z"
     id="path667"
     inkscape:connector-curvature="0"
     style="opacity:0.05;fill:#ffffff;stroke-width:0.66187149" />
  <circle
     cx="307.01825"
     cy="54.254002"
     r="6.5260525"
     id="circle669"
     style="fill:#795548;stroke-width:0.66187149" />
  <circle
     cx="307.01825"
     cy="54.254002"
     r="6.5260525"
     id="circle671"
     style="opacity:0.1;fill:#ffffff;stroke-width:0.66187149" />
  <path
     d="m 301.49822,55.253431 a 6.5194339,6.5194339 0 0 1 10.58995,-5.08317 6.5194339,6.5194339 0 1 0 -9.16693,9.16691 6.4797217,6.4797217 0 0 1 -1.42302,-4.08374 z"
     id="path673"
     inkscape:connector-curvature="0"
     style="opacity:0.05;fill:#ffffff;stroke-width:0.66187149" />
  <circle
     cx="318.55463"
     cy="48.734013"
     r="6.5260525"
     id="circle675"
     style="fill:#795548;stroke-width:0.66187149" />
  <circle
     cx="318.55463"
     cy="48.734013"
     r="6.5260525"
     id="circle677"
     style="opacity:0.1;fill:#ffffff;stroke-width:0.66187149" />
  <path
     d="m 313.03463,49.733421 a 6.5260527,6.5260527 0 0 1 10.58995,-5.08317 6.5194339,6.5194339 0 1 0 -9.16691,9.16691 6.4863404,6.4863404 0 0 1 -1.42304,-4.08374 z"
     id="path679"
     inkscape:connector-curvature="0"
     style="opacity:0.05;fill:#ffffff;stroke-width:0.66187149" />
  <circle
     cx="285.94421"
     cy="54.254002"
     r="6.5260525"
     id="circle681"
     style="fill:#795548;stroke-width:0.66187149" />
  <circle
     cx="285.94421"
     cy="54.254002"
     r="6.5260525"
     id="circle683"
     style="opacity:0.1;fill:#ffffff;stroke-width:0.66187149" />
  <path
     d="m 280.39775,55.253431 a 6.5194339,6.5194339 0 0 1 10.58995,-5.08317 6.5194339,6.5194339 0 1 0 -9.16692,9.16691 6.5194339,6.5194339 0 0 1 -1.42303,-4.08374 z"
     id="path685"
     inkscape:connector-curvature="0"
     style="opacity:0.05;fill:#ffffff;stroke-width:0.66187149" />
  <circle
     cx="309.02368"
     cy="75.321411"
     r="6.5260525"
     id="circle687"
     style="fill:#795548;stroke-width:0.66187149" />
  <circle
     cx="309.02368"
     cy="75.321411"
     r="6.5260525"
     id="circle689"
     style="opacity:0.1;fill:#ffffff;stroke-width:0.66187149" />
  <path
     d="m 303.50369,76.327421 a 6.5128152,6.5128152 0 0 1 10.58994,-5.08317 6.5194339,6.5194339 0 1 0 -9.16692,9.16691 6.5326714,6.5326714 0 0 1 -1.42302,-4.08374 z"
     id="path691"
     inkscape:connector-curvature="0"
     style="opacity:0.05;fill:#ffffff;stroke-width:0.66187149" />
  <circle
     cx="281.43027"
     cy="74.824982"
     r="6.5260525"
     id="circle693"
     style="fill:#795548;stroke-width:0.66187149" />
  <circle
     cx="281.43027"
     cy="74.824982"
     r="6.5260525"
     id="circle695"
     style="opacity:0.1;fill:#ffffff;stroke-width:0.66187149" />
  <path
     d="m 274.09757,70.828801 a 4.7480858,4.7480858 0 0 1 7.71264,-3.70206 4.7480858,4.7480858 0 1 0 -6.67625,6.67624 4.7191635,4.7191635 0 0 1 -1.03639,-2.97418 z"
     id="path697"
     inkscape:connector-curvature="0"
     style="opacity:0.05;fill:#ffffff;stroke-width:0.48203915" />
  <circle
     cx="323.57159"
     cy="84.355927"
     r="6.5260525"
     id="circle699"
     style="fill:#795548;stroke-width:0.66187149" />
  <circle
     cx="323.57159"
     cy="84.355927"
     r="6.5260525"
     id="circle701"
     style="opacity:0.1;fill:#ffffff;stroke-width:0.66187149" />
  <path
     d="m 318.05825,85.342101 a 6.5194339,6.5194339 0 0 1 10.58994,-5.08978 6.5194339,6.5194339 0 1 0 -9.16693,9.16691 6.4797217,6.4797217 0 0 1 -1.42301,-4.07713 z"
     id="path703"
     inkscape:connector-curvature="0"
     style="opacity:0.05;fill:#ffffff;stroke-width:0.66187149" />
  <circle
     cx="333.61224"
     cy="87.870483"
     r="6.5260525"
     id="circle705"
     style="fill:#795548;stroke-width:0.66187149" />
  <circle
     cx="333.61224"
     cy="87.870483"
     r="6.5260525"
     id="circle707"
     style="opacity:0.1;fill:#ffffff;stroke-width:0.66187149" />
  <path
     d="m 328.09222,88.869881 a 6.5194339,6.5194339 0 0 1 10.58993,-5.08317 6.5194339,6.5194339 0 1 0 -9.16691,9.16691 6.4797217,6.4797217 0 0 1 -1.42302,-4.08374 z"
     id="path709"
     inkscape:connector-curvature="0"
     style="opacity:0.05;fill:#ffffff;stroke-width:0.66187149" />
  <circle
     cx="342.13708"
     cy="94.389893"
     r="6.5260525"
     id="circle711"
     style="fill:#795548;stroke-width:0.66187149" />
  <circle
     cx="342.13708"
     cy="94.389893"
     r="6.5260525"
     id="circle713"
     style="opacity:0.1;fill:#ffffff;stroke-width:0.66187149" />
  <path
     d="m 336.61712,95.395931 a 6.5194339,6.5194339 0 0 1 10.58993,-5.08317 6.5194339,6.5194339 0 1 0 -9.16691,9.1603 6.4797217,6.4797217 0 0 1 -1.42302,-4.07713 z"
     id="path715"
     inkscape:connector-curvature="0"
     style="opacity:0.05;fill:#ffffff;stroke-width:0.66187149" />
  <circle
     cx="356.18866"
     cy="85.858368"
     r="6.5260525"
     id="circle717"
     style="fill:#795548;stroke-width:0.66187149" />
  <circle
     cx="356.18866"
     cy="85.858368"
     r="6.5260525"
     id="circle719"
     style="opacity:0.1;fill:#ffffff;stroke-width:0.66187149" />
  <path
     d="m 350.66865,86.864411 a 6.5128152,6.5128152 0 0 1 10.58995,-5.08317 6.5194339,6.5194339 0 1 0 -9.16693,9.16691 6.5326714,6.5326714 0 0 1 -1.42302,-4.08374 z"
     id="path721"
     inkscape:connector-curvature="0"
     style="opacity:0.05;fill:#ffffff;stroke-width:0.66187149" />
  <circle
     cx="348.66315"
     cy="78.332916"
     r="6.5260525"
     id="circle723"
     style="fill:#795548;stroke-width:0.66187149" />
  <circle
     cx="348.66315"
     cy="78.332916"
     r="6.5260525"
     id="circle725"
     style="opacity:0.1;fill:#ffffff;stroke-width:0.66187149" />
  <path
     d="m 343.14317,79.338931 a 6.5128152,6.5128152 0 0 1 10.58995,-5.08317 6.5194339,6.5194339 0 1 0 -9.13383,9.1603 6.4995777,6.4995777 0 0 1 -1.45612,-4.07713 z"
     id="path727"
     inkscape:connector-curvature="0"
     style="opacity:0.05;fill:#ffffff;stroke-width:0.66187149" />
  <circle
     cx="302.49768"
     cy="37.190922"
     r="6.5260525"
     id="circle729"
     style="fill:#795548;stroke-width:0.66187149" />
  <circle
     cx="302.49768"
     cy="37.190922"
     r="6.5260525"
     id="circle731"
     style="opacity:0.1;fill:#ffffff;stroke-width:0.66187149" />
  <path
     d="m 296.98425,38.197011 a 6.5194339,6.5194339 0 0 1 10.58995,-5.08981 6.5194339,6.5194339 0 1 0 -9.16693,9.16693 6.4797217,6.4797217 0 0 1 -1.42302,-4.07712 z"
     id="path733"
     inkscape:connector-curvature="0"
     style="opacity:0.05;fill:#ffffff;stroke-width:0.66187149" />
  <circle
     cx="274.45908"
     cy="63.887424"
     r="4.7529063"
     id="circle735"
     style="fill:#795548;stroke-width:0.48203915" />
  <circle
     cx="274.45908"
     cy="63.887424"
     r="4.7529063"
     id="circle737"
     style="opacity:0.1;fill:#ffffff;stroke-width:0.48203915" />
  <path
     d="m 270.44373,64.615321 a 4.7480858,4.7480858 0 0 1 7.71262,-3.70206 4.7480858,4.7480858 0 1 0 -6.67624,6.67624 4.7191635,4.7191635 0 0 1 -1.03638,-2.97418 z"
     id="path739"
     inkscape:connector-curvature="0"
     style="opacity:0.05;fill:#ffffff;stroke-width:0.48203915" />
  <circle
     cx="266.37265"
     cy="84.858948"
     r="6.5260525"
     id="circle741"
     style="fill:#795548;stroke-width:0.66187149" />
  <circle
     cx="266.37265"
     cy="84.858948"
     r="6.5260525"
     id="circle743"
     style="opacity:0.1;fill:#ffffff;stroke-width:0.66187149" />
  <path
     d="m 260.85269,85.858371 a 6.5194339,6.5194339 0 0 1 10.58995,-5.08317 6.5194339,6.5194339 0 1 0 -9.14707,9.2 6.4863404,6.4863404 0 0 1 -1.44288,-4.11683 z"
     id="path745"
     inkscape:connector-curvature="0"
     style="opacity:0.05;fill:#ffffff;stroke-width:0.66187149" />
  <circle
     cx="297.48059"
     cy="78.332916"
     r="6.5260525"
     id="circle747"
     style="fill:#795548;stroke-width:0.66187149" />
  <circle
     cx="297.48059"
     cy="78.332916"
     r="6.5260525"
     id="circle749"
     style="opacity:0.1;fill:#ffffff;stroke-width:0.66187149" />
  <path
     d="m 291.96727,79.338931 a 6.5128152,6.5128152 0 0 1 10.58994,-5.08317 6.5194339,6.5194339 0 1 0 -9.16692,9.1603 6.4598655,6.4598655 0 0 1 -1.42302,-4.07713 z"
     id="path751"
     inkscape:connector-curvature="0"
     style="opacity:0.05;fill:#ffffff;stroke-width:0.66187149" />
  <circle
     cx="298.48672"
     cy="51.745518"
     r="6.5260525"
     id="circle753"
     style="fill:#795548;stroke-width:0.66187149" />
  <circle
     cx="298.48672"
     cy="51.745518"
     r="6.5260525"
     id="circle755"
     style="opacity:0.1;fill:#ffffff;stroke-width:0.66187149" />
  <path
     d="m 292.97332,52.744931 a 6.5194339,6.5194339 0 0 1 10.58994,-5.08317 6.5194339,6.5194339 0 1 0 -9.16693,9.16692 6.5194339,6.5194339 0 0 1 -1.42301,-4.08375 z"
     id="path757"
     inkscape:connector-curvature="0"
     style="opacity:0.05;fill:#ffffff;stroke-width:0.66187149" />
  <circle
     cx="300.99512"
     cy="44.716434"
     r="6.5260525"
     id="circle759"
     style="fill:#795548;stroke-width:0.66187149" />
  <circle
     cx="300.99512"
     cy="44.716434"
     r="6.5260525"
     id="circle761"
     style="opacity:0.1;fill:#ffffff;stroke-width:0.66187149" />
  <path
     d="m 295.47518,45.722481 a 6.5128152,6.5128152 0 0 1 10.58995,-5.08317 6.5194339,6.5194339 0 1 0 -9.12059,9.1603 6.5128152,6.5128152 0 0 1 -1.46936,-4.07713 z"
     id="path763"
     inkscape:connector-curvature="0"
     style="opacity:0.05;fill:#ffffff;stroke-width:0.66187149" />
  <circle
     cx="292.46362"
     cy="85.858368"
     r="6.5260525"
     id="circle765"
     style="fill:#795548;stroke-width:0.66187149" />
  <path
     d="m 286.94366,86.864411 a 6.5194339,6.5194339 0 0 1 10.58995,-5.08317 6.5194339,6.5194339 0 1 0 -9.16693,9.16691 6.4995777,6.4995777 0 0 1 -1.42302,-4.08374 z"
     id="path767"
     inkscape:connector-curvature="0"
     style="opacity:0.05;fill:#ffffff;stroke-width:0.66187149" />
  <circle
     cx="274.0975"
     cy="58.406651"
     r="4.7529063"
     id="circle769"
     style="fill:#795548;stroke-width:0.48203915" />
  <path
     d="m 270.07736,59.134521 a 4.7480858,4.7480858 0 0 1 7.71264,-3.70205 4.7480858,4.7480858 0 1 0 -6.67624,6.67624 4.7191635,4.7191635 0 0 1 -1.0364,-2.97419 z"
     id="path771"
     inkscape:connector-curvature="0"
     style="opacity:0.05;fill:#ffffff;stroke-width:0.48203915" />
  <circle
     cx="283.93875"
     cy="77.836487"
     r="6.5260525"
     id="circle773"
     style="fill:#795548;stroke-width:0.66187149" />
  <path
     d="m 278.41214,78.835901 a 6.5194339,6.5194339 0 0 1 10.58995,-5.08317 6.5194339,6.5194339 0 1 0 -9.16693,9.16693 6.4797217,6.4797217 0 0 1 -1.42302,-4.08376 z"
     id="path775"
     inkscape:connector-curvature="0"
     style="opacity:0.05;fill:#ffffff;stroke-width:0.66187149" />
  <circle
     cx="307.52124"
     cy="30.671511"
     r="6.5260525"
     id="circle777"
     style="fill:#795548;stroke-width:0.66187149" />
  <path
     d="m 302.00123,31.670961 a 6.5194339,6.5194339 0 0 1 10.58995,-5.08319 6.5194339,6.5194339 0 1 0 -9.16691,9.16693 6.4797217,6.4797217 0 0 1 -1.42304,-4.08374 z"
     id="path779"
     inkscape:connector-curvature="0"
     style="opacity:0.05;fill:#ffffff;stroke-width:0.66187149" />
  <circle
     cx="307.01825"
     cy="45.219486"
     r="6.5260525"
     id="circle781"
     style="fill:#795548;stroke-width:0.66187149" />
  <path
     d="m 301.49822,46.225501 a 6.5194339,6.5194339 0 0 1 10.58995,-5.08979 6.5194339,6.5194339 0 1 0 -9.16693,9.16691 6.4797217,6.4797217 0 0 1 -1.42302,-4.07712 z"
     id="path783"
     inkscape:connector-curvature="0"
     style="opacity:0.05;fill:#ffffff;stroke-width:0.66187149" />
  <circle
     cx="318.55463"
     cy="40.202427"
     r="6.5260525"
     id="circle785"
     style="fill:#795548;stroke-width:0.66187149" />
  <path
     d="m 313.03463,41.201901 a 6.5260527,6.5260527 0 0 1 10.58995,-5.08317 6.5194339,6.5194339 0 1 0 -9.16691,9.16691 6.4863404,6.4863404 0 0 1 -1.42304,-4.08374 z"
     id="path787"
     inkscape:connector-curvature="0"
     style="opacity:0.05;fill:#ffffff;stroke-width:0.66187149" />
  <circle
     cx="313.53766"
     cy="68.29895"
     r="6.5260525"
     id="circle789"
     style="fill:#795548;stroke-width:0.66187149" />
  <circle
     cx="317.07867"
     cy="65.346985"
     r="6.5260525"
     id="circle791"
     style="fill:#795548;stroke-width:0.66187149" />
  <path
     d="m 308.01765,69.304961 a 6.5128152,6.5128152 0 0 1 10.58995,-5.08317 6.5194339,6.5194339 0 1 0 -9.16031,9.16029 6.4797217,6.4797217 0 0 1 -1.42964,-4.07712 z"
     id="path793"
     inkscape:connector-curvature="0"
     style="opacity:0.05;fill:#ffffff;stroke-width:0.66187149" />
  <circle
     cx="310.02972"
     cy="86.361389"
     r="6.5260525"
     id="circle795"
     style="fill:#795548;stroke-width:0.66187149" />
  <path
     d="m 304.50973,87.367441 a 6.5128152,6.5128152 0 0 1 10.58995,-5.08319 6.5194339,6.5194339 0 1 0 -9.16692,9.16031 6.4797217,6.4797217 0 0 1 -1.42303,-4.07712 z"
     id="path797"
     inkscape:connector-curvature="0"
     style="opacity:0.05;fill:#ffffff;stroke-width:0.66187149" />
  <circle
     cx="312.53821"
     cy="73.315918"
     r="6.5260525"
     id="circle799"
     style="fill:#795548;stroke-width:0.66187149" />
  <path
     d="m 307.01823,74.321951 a 6.5128152,6.5128152 0 0 1 10.58994,-5.08318 6.5194339,6.5194339 0 1 0 -9.16692,9.16031 6.4797217,6.4797217 0 0 1 -1.42302,-4.07713 z"
     id="path801"
     inkscape:connector-curvature="0"
     style="opacity:0.05;fill:#ffffff;stroke-width:0.66187149" />
  <circle
     cx="324.07458"
     cy="62.275883"
     r="6.5260525"
     id="circle803"
     style="fill:#795548;stroke-width:0.66187149" />
  <circle
     cx="358.31982"
     cy="77.042236"
     r="6.5260525"
     id="circle805"
     style="fill:#795548;stroke-width:0.66187149" />
  <path
     d="m 318.55464,63.281931 a 6.5128152,6.5128152 0 0 1 10.58995,-5.08318 6.5194339,6.5194339 0 1 0 -9.1603,9.16693 6.4995777,6.4995777 0 0 1 -1.42965,-4.08375 z"
     id="path807"
     inkscape:connector-curvature="0"
     style="opacity:0.05;fill:#ffffff;stroke-width:0.66187149" />
  <circle
     cx="317.55518"
     cy="79.84198"
     r="6.5260525"
     id="circle809"
     style="fill:#795548;stroke-width:0.66187149" />
  <path
     d="m 312.03521,80.841391 a 6.5194339,6.5194339 0 0 1 10.58994,-5.08319 6.5194339,6.5194339 0 1 0 -9.13381,9.16693 6.4797217,6.4797217 0 0 1 -1.45613,-4.08374 z"
     id="path811"
     inkscape:connector-curvature="0"
     style="opacity:0.05;fill:#ffffff;stroke-width:0.66187149" />
  <circle
     cx="338.12616"
     cy="48.734013"
     r="6.5260525"
     id="circle813"
     style="fill:#795548;stroke-width:0.66187149" />
  <path
     d="m 332.60617,49.733421 a 6.5194339,6.5194339 0 0 1 10.58995,-5.08317 6.5194339,6.5194339 0 1 0 -9.16692,9.16691 6.5194339,6.5194339 0 0 1 -1.42303,-4.08374 z"
     id="path815"
     inkscape:connector-curvature="0"
     style="opacity:0.05;fill:#ffffff;stroke-width:0.66187149" />
  <circle
     cx="333.10919"
     cy="58.264927"
     r="6.5260525"
     id="circle817"
     style="fill:#795548;stroke-width:0.66187149" />
  <path
     d="m 327.58919,59.270981 a 6.5194339,6.5194339 0 0 1 10.58995,-5.08978 6.5194339,6.5194339 0 1 0 -9.16693,9.16691 6.5128152,6.5128152 0 0 1 -1.42302,-4.07713 z"
     id="path819"
     inkscape:connector-curvature="0"
     style="opacity:0.05;fill:#ffffff;stroke-width:0.66187149" />
  <circle
     cx="337.12012"
     cy="67.2995"
     r="6.5260525"
     id="circle821"
     style="fill:#795548;stroke-width:0.66187149" />
  <path
     d="m 331.60013,68.298911 a 6.5194339,6.5194339 0 0 1 10.58994,-5.08317 6.5194339,6.5194339 0 1 0 -9.16029,9.16692 6.4863404,6.4863404 0 0 1 -1.42965,-4.08375 z"
     id="path823"
     inkscape:connector-curvature="0"
     style="opacity:0.05;fill:#ffffff;stroke-width:0.66187149" />
  <circle
     cx="347.15405"
     cy="85.858368"
     r="6.5260525"
     id="circle825"
     style="fill:#795548;stroke-width:0.66187149" />
  <path
     d="m 341.64072,86.864411 a 6.5128152,6.5128152 0 0 1 10.58995,-5.08317 6.5194339,6.5194339 0 1 0 -9.16692,9.16691 6.492959,6.492959 0 0 1 -1.42303,-4.08374 z"
     id="path827"
     inkscape:connector-curvature="0"
     style="opacity:0.05;fill:#ffffff;stroke-width:0.66187149" />
  <circle
     cx="355.18262"
     cy="70.807434"
     r="6.5260525"
     id="circle829"
     style="fill:#795548;stroke-width:0.66187149" />
  <circle
     cx="285.51401"
     cy="61.951603"
     r="6.5260525"
     id="circle831"
     style="fill:#795548;stroke-width:0.66187149" />
  <path
     d="m 349.66261,71.813451 a 6.5194339,6.5194339 0 0 1 10.58994,-5.08317 6.5194339,6.5194339 0 1 0 -9.16692,9.1603 6.4797217,6.4797217 0 0 1 -1.42302,-4.07713 z"
     id="path833"
     inkscape:connector-curvature="0"
     style="opacity:0.05;fill:#ffffff;stroke-width:0.66187149" />
  <circle
     cx="338.62921"
     cy="77.836487"
     r="6.5260525"
     id="circle835"
     style="fill:#795548;stroke-width:0.66187149" />
  <path
     d="m 333.1092,78.835901 a 6.5194339,6.5194339 0 0 1 10.58995,-5.08317 6.5194339,6.5194339 0 1 0 -9.16693,9.16693 6.4797217,6.4797217 0 0 1 -1.42302,-4.08376 z"
     id="path837"
     inkscape:connector-curvature="0"
     style="opacity:0.05;fill:#ffffff;stroke-width:0.66187149" />
  <circle
     cx="339.6286"
     cy="85.858368"
     r="6.5260525"
     id="circle839"
     style="fill:#795548;stroke-width:0.66187149" />
  <path
     d="m 334.10863,86.864411 a 6.5128152,6.5128152 0 0 1 10.58994,-5.08317 6.5194339,6.5194339 0 1 0 -9.1603,9.16691 6.4995777,6.4995777 0 0 1 -1.42964,-4.08374 z"
     id="path841"
     inkscape:connector-curvature="0"
     style="opacity:0.05;fill:#ffffff;stroke-width:0.66187149" />
  <circle
     cx="320.56671"
     cy="91.378357"
     r="6.5260525"
     id="circle843"
     style="fill:#795548;stroke-width:0.66187149" />
  <path
     d="m 315.04673,92.384421 a 6.5128152,6.5128152 0 0 1 10.58994,-5.08317 6.5194339,6.5194339 0 1 0 -9.16692,9.16029 6.4598655,6.4598655 0 0 1 -1.42302,-4.07712 z"
     id="path845"
     inkscape:connector-curvature="0"
     style="opacity:0.05;fill:#ffffff;stroke-width:0.66187149" />
  <circle
     cx="298.98975"
     cy="70.304382"
     r="6.5260525"
     id="circle847"
     style="fill:#795548;stroke-width:0.66187149" />
  <path
     d="m 293.46971,71.310431 a 6.5128152,6.5128152 0 0 1 10.58995,-5.08317 6.5194339,6.5194339 0 1 0 -9.15368,9.18677 6.4995777,6.4995777 0 0 1 -1.43627,-4.1036 z"
     id="path849"
     inkscape:connector-curvature="0"
     style="opacity:0.05;fill:#ffffff;stroke-width:0.66187149" />
  <circle
     cx="305.50916"
     cy="69.808014"
     r="6.5260525"
     id="circle851"
     style="fill:#795548;stroke-width:0.66187149" />
  <path
     d="m 299.98915,70.780931 a 6.5260527,6.5260527 0 0 1 10.58995,-5.08317 6.5194339,6.5194339 0 1 0 -9.16692,9.16692 6.4863404,6.4863404 0 0 1 -1.42303,-4.08375 z"
     id="path853"
     inkscape:connector-curvature="0"
     style="opacity:0.05;fill:#ffffff;stroke-width:0.66187149" />
  <circle
     cx="291.96722"
     cy="77.836487"
     r="6.5260525"
     id="circle855"
     style="fill:#795548;stroke-width:0.66187149" />
  <path
     d="m 286.44727,78.835901 a 6.5194339,6.5194339 0 0 1 10.58993,-5.08317 6.5194339,6.5194339 0 1 0 -9.16692,9.16693 6.4797217,6.4797217 0 0 1 -1.42301,-4.08376 z"
     id="path857"
     inkscape:connector-curvature="0"
     style="opacity:0.05;fill:#ffffff;stroke-width:0.66187149" />
  <circle
     cx="348.66315"
     cy="94.389893"
     r="6.5260525"
     id="circle859"
     style="fill:#795548;stroke-width:0.66187149" />
  <circle
     cx="348.66315"
     cy="94.389893"
     r="6.5260525"
     id="circle861"
     style="opacity:0.1;fill:#ffffff;stroke-width:0.66187149" />
  <path
     d="m 343.14317,95.395931 a 6.5128152,6.5128152 0 0 1 10.58995,-5.08317 6.5194339,6.5194339 0 1 0 -9.13383,9.1603 6.5128152,6.5128152 0 0 1 -1.45612,-4.07713 z"
     id="path863"
     inkscape:connector-curvature="0"
     style="opacity:0.05;fill:#ffffff;stroke-width:0.66187149" />
  <circle
     cx="342.13708"
     cy="70.807434"
     r="6.5260525"
     id="circle865"
     style="fill:#795548;stroke-width:0.66187149" />
  <circle
     cx="342.13708"
     cy="70.807434"
     r="6.5260525"
     id="circle867"
     style="opacity:0.1;fill:#ffffff;stroke-width:0.66187149" />
  <path
     d="m 336.61712,71.813451 a 6.5194339,6.5194339 0 0 1 10.58993,-5.08317 6.5194339,6.5194339 0 1 0 -9.16691,9.1603 6.4797217,6.4797217 0 0 1 -1.42302,-4.07713 z"
     id="path869"
     inkscape:connector-curvature="0"
     style="opacity:0.05;fill:#ffffff;stroke-width:0.66187149" />
  <circle
     cx="323.57159"
     cy="54.254002"
     r="6.5260525"
     id="circle871"
     style="fill:#795548;stroke-width:0.66187149" />
  <circle
     cx="323.57159"
     cy="54.254002"
     r="6.5260525"
     id="circle873"
     style="opacity:0.1;fill:#ffffff;stroke-width:0.66187149" />
  <path
     d="m 318.05825,55.253431 a 6.5194339,6.5194339 0 0 1 10.58994,-5.08317 6.5194339,6.5194339 0 1 0 -9.16693,9.16691 6.4797217,6.4797217 0 0 1 -1.42301,-4.08374 z"
     id="path875"
     inkscape:connector-curvature="0"
     style="opacity:0.05;fill:#ffffff;stroke-width:0.66187149" />
  <polygon
     points="789.92,429.9 572.39,429.9 595.58,353.15 766.73,353.15 "
     id="polygon877"
     transform="matrix(0.66187147,0,0,0.66187147,-138.23595,-155.76443)"
     style="fill:#f55f44" />
  <polygon
     points="602.11,359.68 760.52,360.01 759.22,353.48 595.58,353.15 572.39,429.9 580.89,429.9 "
     id="polygon879"
     transform="matrix(0.66187147,0,0,0.66187147,-138.23595,-155.76443)"
     style="opacity:0.05;fill:#ffffff" />
  <polygon
     points="795.47,434.8 565.53,434.8 574.67,423.05 787.63,423.05 "
     id="polygon881"
     transform="matrix(0.66187147,0,0,0.66187147,-138.23595,-155.76443)"
     style="fill:#1890ff" />
  <polygon
     points="795.47,434.8 565.53,434.8 574.67,423.05 787.63,423.05 "
     id="polygon883"
     transform="matrix(0.66187147,0,0,0.66187147,-138.23595,-155.76443)"
     style="fill:#f55f44" />
  <polygon
     points="795.47,434.8 565.53,434.8 574.67,423.05 787.63,423.05 "
     id="polygon885"
     transform="matrix(0.66187147,0,0,0.66187147,-138.23595,-155.76443)"
     style="opacity:0.1" />
  <polygon
     points="759.5,352.52 779.17,423.05 788.5,423.52 766.5,352.52 "
     id="polygon887"
     transform="matrix(0.66187147,0,0,0.66187147,-138.23595,-155.76443)"
     style="opacity:0.05" />
  <path
     d="m 244.97457,-40.293389 c -0.23138,16.24473 -13.93576,29.09107 -30.18047,29.09107 h -2.26077 a 7.6403209,7.6403209 0 0 0 -5.35063,2.1595302 7.4378643,7.4378643 0 0 0 -2.17401,3.79365 6.9654661,6.9654661 0 0 0 -0.22654,1.79801 V 25.225381 a 28.724713,28.724713 0 0 1 -4.53118,15.55539 c -4.25641,6.6425 -6.74855,14.24426 -6.74855,22.13043 v 0 a 13.829704,13.829704 0 0 1 -14.08037,13.82007 c -7.59693,-0.13981 -13.55493,-6.67143 -13.55493,-14.27318 v -7.17274 l -3.76472,0.44347 v 7.18238 a 13.834525,13.834525 0 0 1 -14.08518,13.82007 c -7.59695,-0.13981 -13.55013,-6.67143 -13.55013,-14.27318 v -3.62976 c -3.76955,1.57144 -25.12389,1.57144 -31.05296,0.053 l -1.61001,-0.12528 v 4.15519 a 13.829704,13.829704 0 0 1 -14.080368,13.82005 c -7.60176,-0.1398 -13.55494,-6.67141 -13.55494,-14.27316 v -5.96283 l -1.25813,-0.11575 v 6.53164 a 14.118927,14.118927 0 0 1 -0.42419,3.43213 13.848985,13.848985 0 0 1 -13.65616,10.38793 c -6.9462,-0.12528 -12.50892,-5.59164 -13.42962,-12.33538 a 17.064186,17.064186 0 0 1 -0.12528,-1.92814 v -30.01659 a 45.967255,45.967255 0 0 1 9.79986,-28.4402998 8.5224525,8.5224525 0 0 0 0.2362,-10.06499 c -7.03294,-10.3011702 -17.43536,-27.6835102 -17.0931,-40.0092502 0.0867,-3.56709 1.0653,-6.69552 3.29233,-9.12018 0.13496,-0.14943 0.27476,-0.29887 0.41455,-0.43866 10.12281,-10.60486 27.95826,-2.26076 26.40128,12.31128 a 40.901024,40.901024 0 0 0 1.07012,14.57204 44.67057,44.67057 0 0 0 2.82477,7.81387 13.246437,13.246437 0 0 0 13.55494,7.53427 46.724056,46.724056 0 0 1 5.66394,-0.33744 h 58.071268 a 16.317027,16.317027 0 0 0 15.42525,-11.0869 15.830166,15.830166 0 0 0 0.87732,-5.26387 v -45.17192 a 8.7923944,8.7923944 0 0 1 9.07197,-8.79238 8.5417341,8.5417341 0 0 1 6.08334,2.81029 9.4720696,9.4720696 0 0 1 2.44875,6.33399 4.6564985,4.6564985 0 0 0 4.66132,4.6565 h 27.37018 a 29.505618,29.505618 0 0 1 29.51527,29.94909 z"
     id="path889"
     inkscape:connector-curvature="0"
     style="fill:#f3ad55;stroke-width:0.48203915" />
  <path
     d="m 72.457582,66.343321 a 13.848985,13.848985 0 0 1 -13.65618,10.38795 c -6.94618,-0.12528 -12.50892,-5.59166 -13.42961,-12.3354 8.3682,-2.26558 19.96125,-3.81773 27.08579,1.94745 z"
     id="path891"
     inkscape:connector-curvature="0"
     style="fill:#fbdca3;stroke-width:0.48203915" />
  <path
     d="m 101.34617,66.343321 a 13.839344,13.839344 0 0 1 -13.651348,10.38795 c -6.94618,-0.12528 -12.53301,-5.59166 -13.4296,-12.3354 8.3682,-2.26558 19.96124,-3.81773 27.080948,1.94745 z"
     id="path893"
     inkscape:connector-curvature="0"
     style="fill:#fbdca3;stroke-width:0.48203915" />
  <path
     d="m 161.64446,66.343321 a 13.844165,13.844165 0 0 1 -13.65617,10.38795 c -6.94618,-0.12528 -12.53303,-5.59166 -13.42479,-12.3354 8.36337,-2.26558 19.95643,-3.81773 27.08096,1.94745 z"
     id="path895"
     inkscape:connector-curvature="0"
     style="fill:#fbdca3;stroke-width:0.48203915" />
  <path
     d="m 193.0493,66.343321 a 13.848985,13.848985 0 0 1 -13.65616,10.38795 c -6.94618,-0.12528 -12.53302,-5.59166 -13.42961,-12.3354 8.3682,-2.26558 19.96124,-3.81773 27.08577,1.94745 z"
     id="path897"
     inkscape:connector-curvature="0"
     style="fill:#fbdca3;stroke-width:0.48203915" />
  <path
     d="m 69.367702,-28.724439 c -9.76129,-3.91898 -21.69177,-11.0869 -31.17829,-17.32449 0.0867,-3.56711 1.06531,-6.69554 3.29233,-9.12018 0.13496,-0.14944 0.27475,-0.29887 0.41454,-0.43867 10.12283,-10.60485 27.95828,-2.26076 26.40128,12.31129 a 40.901024,40.901024 0 0 0 1.07014,14.57205 z"
     id="path899"
     inkscape:connector-curvature="0"
     style="fill:#fbdca3;stroke-width:0.48203915" />
  <path
     d="m 81.187302,-13.626979 c 0,0 26.873678,33.82952 70.859758,-0.0867"
     id="path901"
     inkscape:connector-curvature="0"
     style="fill:#fbdca3;stroke-width:0.48203915" />
  <path
     d="m 165.8382,-76.523459 c 0,0 16.33148,21.35435 0,47.72189"
     id="path903"
     inkscape:connector-curvature="0"
     style="fill:#fbdca3;stroke-width:0.48203915" />
  <path
     d="m 204.78215,-3.6632288 c 0,0 -14.38405,17.8691898 -0.19283,32.0507798"
     id="path905"
     inkscape:connector-curvature="0"
     style="fill:#fbdca3;stroke-width:0.48203915" />
  <path
     d="m 206.03545,-7.4327688 c -1.06531,1.00264 -0.70379,1.97153 -1.02676,3.44176 L 158.31356,-16.225169 c 2.51143,-1.92815 5.62541,-4.2323 6.65696,-7.29808 5.59166,4.34318 16.65929,11.63161 41.06493,16.0904802 z"
     id="path907"
     inkscape:connector-curvature="0"
     style="opacity:0.1;stroke-width:0.48203915" />
  <path
     d="m 207.1827,-9.0427888 a 7.4378643,7.4378643 0 0 0 -2.17401,3.79365 L 159.48493,-17.116949 a 16.249541,16.249541 0 0 0 5.47596,-7.66441 c 5.60129,4.34799 17.81134,11.27972 42.22181,15.7385702 z"
     id="path909"
     inkscape:connector-curvature="0"
     style="fill:#383f4d;stroke-width:0.48203915" />
  <path
     d="m 166.67212,-22.269939 c 0,0 14.24426,10.71091 38.11003,14.0225102"
     id="path911"
     inkscape:connector-curvature="0"
     style="opacity:0.1;stroke-width:0.48203915" />
  <path
     d="m 166.67212,-23.523249 c 0,0 14.24426,10.71092 38.11003,14.0273402"
     id="path913"
     inkscape:connector-curvature="0"
     style="fill:#f3ad55;stroke-width:0.48203915" />
  <path
     d="m 202.27071,-22.506139 c 0,0 23.86577,7.53428 30.14674,-16.33149 z"
     id="path915"
     inkscape:connector-curvature="0"
     style="opacity:0.1;stroke-width:0.48203915" />
  <path
     d="m 202.27071,-23.764269 c 0,0 23.86577,7.5391 30.14674,-16.32666 z"
     id="path917"
     inkscape:connector-curvature="0"
     style="fill:#fbdca3;stroke-width:0.48203915" />
  <ellipse
     cx="244.97939"
     cy="-43.233883"
     rx="2.5114241"
     ry="4.3961973"
     id="ellipse919"
     style="fill:#383f4d;stroke-width:0.48203915" />
  <path
     d="m 54.675142,47.211191 5.02285,-40.1972398 c 0,0 -15.07818,23.8657398 -5.02285,40.1972398"
     id="path921"
     inkscape:connector-curvature="0"
     style="opacity:0.1;stroke-width:0.48203915" />
  <path
     d="m 60.941662,7.0139512 c 0,0 -15.07337,23.8657398 -5.02766,40.1972398 z"
     id="path923"
     inkscape:connector-curvature="0"
     style="fill:#fbdca3;stroke-width:0.48203915" />
  <g
     id="g2169"
     transform="matrix(0.80412082,0,0,0.80412082,4761.3614,634.68073)">
    <circle
       id="circle1845"
       r="12.62395"
       cy="-838.91998"
       cx="-5318.5112"
       style="fill:#1890ff;stroke-width:0.84838372" />
    <path
       id="path1847"
       d="m -5342.3171,-819.492 -0.1527,-0.15271 a 2.3245714,2.3245714 0 0 0 0,-3.70744 l 0.1358,-0.16968 a 2.5451512,2.5451512 0 0 1 0,4.02134 z"
       inkscape:connector-curvature="0"
       style="fill:#4d8af0;stroke-width:0.84838372" />
    <path
       id="path1849"
       d="m -5342.3171,-819.492 -0.1527,-0.15271 a 2.3245714,2.3245714 0 0 0 0,-3.70744 l 0.1358,-0.16968 a 2.5451512,2.5451512 0 0 1 0,4.02134 z"
       inkscape:connector-curvature="0"
       style="opacity:0.1;stroke-width:0.84838372" />
    <path
       id="path1851"
       d="m -5342.4698,-819.492 a 2.5451512,2.5451512 0 0 1 0,-4.02134 l 0.1358,0.16967 a 2.3245714,2.3245714 0 0 0 0,3.70744 z"
       inkscape:connector-curvature="0"
       style="fill:#4d8af0;stroke-width:0.84838372" />
    <polyline
       id="polyline1853"
       points="555.37 210.9 555.37 210.9 555.37 210.9 555.37 210.9"
       style="fill:#4d8af0"
       transform="matrix(0.84838374,0,0,0.84838374,-5813.5603,-1002.3527)" />
    <path
       id="path1855"
       d="m -5277.7975,-751.5704 c 5.7945,-2.19732 10.7066,-6.21017 15.2709,-10.41815 9.0268,-8.33113 17.5446,-18.66445 18.2742,-30.94056 0.263,-4.47947 -0.5429,-8.94196 -1.3489,-13.36204 -1.6204,-8.90803 -3.2748,-17.91787 -6.9483,-26.19809 a 57.545869,57.545869 0 0 0 -18.4099,-22.90636 6.1932013,6.1932013 0 0 0 -4.1656,-1.23864 c -2.5451,0.22906 -3.1899,1.97673 -3.5292,3.64805 -2.0616,10.1806 3.5971,20.05579 7.7372,29.55769 a 107.89744,107.89744 0 0 1 8.1615,29.92249 c 0.5345,4.37766 0.7296,9.11164 -1.578,12.87847 -1.4083,2.3076 -3.6141,3.9874 -5.769,5.6163 -3.2239,2.43486 -6.7871,4.98849 -10.8254,4.86972 -4.0383,-0.11878 -8.5517,-3.58867 -12.7258,-2.4688 -4.174,1.11987 -7.2367,7.54213 -7.2621,11.65679 -0.051,11.14777 15.3642,12.31854 23.1184,9.38313 z"
       inkscape:connector-curvature="0"
       style="fill:#ffd180;stroke-width:0.84838372" />
    <g
       id="g1861"
       style="opacity:0.1"
       transform="matrix(0.84838374,0,0,0.84838374,-5813.5603,-1002.3527)">
      <path
         id="path1857"
         transform="translate(-115,-59.2)"
         d="m 762.36,320.55 c -1.66,2.72 -4.26,4.7 -6.8,6.62 a 31.6,31.6 0 0 1 -8.46,5 c 4.32,-0.29 8.19,-3 11.7,-5.69 2.54,-1.92 5.14,-3.91 6.8,-6.62 2.71,-4.43 2.49,-10 1.86,-15.18 a 127.16,127.16 0 0 0 -9.62,-35.27 c -4.88,-11.21 -11.56,-22.86 -9.12,-34.84 a 5.19,5.19 0 0 1 2,-3.62 6.53,6.53 0 0 0 -1.11,0 c -3,0.27 -3.76,2.33 -4.16,4.3 -2.43,12 4.24,23.64 9.12,34.84 a 127.16,127.16 0 0 1 9.62,35.27 c 0.66,5.17 0.89,10.75 -1.83,15.19 z"
         inkscape:connector-curvature="0" />
      <path
         id="path1859"
         transform="translate(-115,-59.2)"
         d="m 722.52,343.08 c 0,-4.48 3.19,-11.29 7.48,-13.33 a 7.85,7.85 0 0 0 -2.17,0.25 c -4.83,1.31 -8.53,8.89 -8.56,13.74 -0.06,12.26 15.73,14.26 25.28,11.69 -9.49,1.38 -22.09,-1.43 -22.03,-12.35 z"
         inkscape:connector-curvature="0" />
    </g>
    <path
       id="path1867"
       d="m -5356.4596,-874.26368 c 0,0 22.2107,-4.44553 33.316,0 0,0 6.6598,-15.55088 13.3281,-15.55088 6.6683,0 8.8826,24.43345 8.8826,24.43345 l 8.8826,35.53882 c 0,0 42.2071,75.50616 0,115.50745 -42.2071,40.00129 -108.8477,-4.44553 -108.8477,-33.31603 0,-28.8705 13.3282,-88.85123 13.3282,-88.85123 0,0 13.3281,-48.86693 17.7736,-53.31246 4.4455,-4.44553 13.3366,15.55088 13.3366,15.55088 z"
       inkscape:connector-curvature="0"
       style="fill:#ffd180;stroke-width:0.84838372" />
    <g
       id="g1873"
       style="opacity:0.1"
       transform="matrix(0.84838374,0,0,0.84838374,-5813.5603,-1002.3527)">
      <path
         id="path1869"
         transform="translate(-115,-59.2)"
         d="m 748,311.48 a 207.1,207.1 0 0 0 -18.32,-48.93 l 1.65,6.62 A 207,207 0 0 1 748,311.48 Z"
         inkscape:connector-curvature="0"
         style="fill:#ffffff" />
      <path
         id="path1871"
         transform="translate(-115,-59.2)"
         d="m 606.12,352.37 c 0,-34 12.67,-91.06 12.67,-91.06 0,0 15.71,-57.6 20.95,-62.84 5.24,-5.24 15.71,18.33 15.71,18.33 0,0 26.18,-5.24 39.27,0 0,0 7.86,-18.33 15.71,-18.33 3,0 5.31,4.34 6.93,9.65 -1.6,-7.77 -4.32,-16.27 -8.58,-16.27 -7.85,0 -15.71,18.33 -15.71,18.33 -13.09,-5.24 -39.27,0 -39.27,0 0,0 -10.47,-23.56 -15.71,-18.33 -5.24,5.23 -20.95,62.84 -20.95,62.84 0,0 -12.67,57 -12.67,91.06 -0.01,3.08 1.65,7.6 1.65,6.62 z"
         inkscape:connector-curvature="0"
         style="fill:#ffffff" />
    </g>
    <circle
       id="circle1875"
       r="4.4455304"
       cy="-835.39069"
       cx="-5313.1411"
       style="fill:#58555d;stroke-width:0.84838372" />
    <circle
       id="circle1877"
       r="4.4455304"
       cy="-835.39069"
       cx="-5364.231"
       style="fill:#58555d;stroke-width:0.84838372" />
    <ellipse
       id="ellipse1879"
       ry="4.4455304"
       rx="6.6598125"
       cy="-830.94513"
       cx="-5337.5747"
       style="fill:#58555d;stroke-width:0.84838372" />
    <rect
       id="rect1881"
       transform="rotate(-12.52)"
       height="2.2227652"
       width="20.479982"
       y="-1965.5702"
       x="-4992.6812"
       style="fill:#ffd180;stroke-width:0.84838372" />
    <rect
       id="rect1883"
       transform="rotate(-11.27)"
       height="2.2227652"
       width="22.651846"
       y="-1847.4774"
       x="-5036.0767"
       style="fill:#ffd180;stroke-width:0.84838372" />
    <path
       id="path1889"
       d="m -5343.1145,-802.52433 a 101.6194,101.6194 0 0 1 -17.3495,-1.47619 95.867362,95.867362 0 0 1 -31.3223,-11.25805 l 0.772,-3.58866 a 105.41168,105.41168 0 0 0 31.3902,11.02899 c 15.992,2.74028 43.4966,1.91734 71.4509,-13.50627 l 1.8664,3.39353 c -20.2933,11.21564 -41.6556,15.40665 -56.8077,15.40665 z"
       inkscape:connector-curvature="0"
       style="opacity:0.1;stroke-width:0.84838372" />
    <path
       id="path1891"
       d="m -5288.1732,-822.14744 c -27.9967,15.42361 -55.4673,16.24654 -71.4509,13.50626 a 105.41168,105.41168 0 0 1 -31.3902,-11.02898 l -2.0531,3.27476 a 107.12541,107.12541 0 0 0 32.6034,11.5465 101.6194,101.6194 0 0 0 17.3579,1.48467 c 15.1522,0 36.4805,-4.18253 56.8418,-15.3812 z m -54.2202,18.47779 a 0.4326757,0.4326757 0 1 1 0.4327,-0.43267 0.4326757,0.4326757 0 0 1 -0.4327,0.42419 z"
       inkscape:connector-curvature="0"
       style="fill:#f55f44;stroke-width:0.84838372" />
    <path
       id="path1893"
       d="m -5346.6947,-797.66309 v 0 a 4.2928217,4.2928217 0 0 0 4.2928,4.29282 v 0 a 4.2928217,4.2928217 0 0 0 4.2928,-4.29282 v 0 a 4.2928217,4.2928217 0 0 0 -4.2928,-4.29282 v 0 a 4.2928217,4.2928217 0 0 0 -4.2928,4.29282 z m 4.2928,-2.14641 a 0.71264234,0.71264234 0 1 1 0.7126,-0.71264 0.71264234,0.71264234 0 0 1 -0.7041,0.71264 z"
       inkscape:connector-curvature="0"
       style="opacity:0.1;fill:url(#f9701715-69c0-451a-ad22-82cf5298eaa1);stroke-width:0.84838372" />
    <path
       id="path1895"
       d="m -5346.262,-797.66309 v 0 a 3.8686298,3.8686298 0 0 0 3.8686,3.86863 v 0 a 3.8686298,3.8686298 0 0 0 3.8686,-3.86863 v 0 a 3.8686298,3.8686298 0 0 0 -3.8686,-3.86863 v 0 a 3.8686298,3.8686298 0 0 0 -3.8686,3.86863 z m 3.8686,-1.93432 a 0.64477164,0.64477164 0 1 1 0.6448,-0.64477 0.64477164,0.64477164 0 0 1 -0.6448,0.64477 z"
       inkscape:connector-curvature="0"
       style="fill:#4d8af0;stroke-width:0.84838372" />
    <path
       id="path1897"
       d="m -5293.8659,-820.8579 c -59.1238,34.78373 -93.1949,2.54515 -93.1949,2.54515 z"
       inkscape:connector-curvature="0"
       style="fill:#ffd180;stroke-width:0.84838372" />
    <path
       id="path1953"
       d="m -5346.9492,-764.66945 c 0,0 15.449,33.58752 -4.8358,36.4805 -20.2849,2.89299 -11.029,-28.1324 -11.029,-28.1324 0,0 -2.0276,-9.20496 -6.9652,-9.72248"
       inkscape:connector-curvature="0"
       style="opacity:0.1;stroke-width:0.84838372" />
    <path
       id="path1955"
       d="m -5328.2848,-765.4839 c 0,0 -18.3675,32.08588 1.578,36.73502 19.9455,4.64914 13.4808,-27.03799 13.4808,-27.03799 0,0 2.8336,-8.98438 7.8052,-9.06922"
       inkscape:connector-curvature="0"
       style="opacity:0.1;stroke-width:0.84838372" />
    <path
       id="path1957"
       d="m -5348.7393,-765.61115 c 0,0 15.449,33.58751 -4.8358,36.4805 -20.2849,2.89299 -11.029,-28.13241 -11.029,-28.13241 0,0 -2.0276,-9.23041 -6.9483,-9.74793"
       inkscape:connector-curvature="0"
       style="fill:#ffd180;stroke-width:0.84838372" />
    <path
       id="path1959"
       d="m -5326.851,-766.9007 c 0,0 -18.4015,32.09436 1.578,36.70957 19.9794,4.61521 13.4808,-27.03799 13.4808,-27.03799 0,0 2.8336,-8.98439 7.8051,-9.06922"
       inkscape:connector-curvature="0"
       style="fill:#ffd180;stroke-width:0.84838372" />
    <rect
       id="rect1961"
       height="6.5580063"
       width="0.34783733"
       y="-736.11279"
       x="-5360.082"
       style="opacity:0.5;fill:#58555d;stroke-width:0.84838372" />
    <rect
       id="rect1963"
       height="6.5580063"
       width="0.34783733"
       y="-736.11279"
       x="-5354.4658"
       style="opacity:0.5;fill:#58555d;stroke-width:0.84838372" />
    <rect
       id="rect1965"
       height="9.1710281"
       width="0.34783733"
       y="-738.19983"
       x="-5357.5117"
       style="opacity:0.5;fill:#58555d;stroke-width:0.84838372" />
    <rect
       id="rect1967"
       height="6.5580063"
       width="0.34783733"
       y="-737.51263"
       x="-5323.6016"
       style="opacity:0.5;fill:#58555d;stroke-width:0.84838372" />
    <rect
       id="rect1969"
       height="6.5580063"
       width="0.34783733"
       y="-737.51263"
       x="-5317.9854"
       style="opacity:0.5;fill:#58555d;stroke-width:0.84838372" />
    <rect
       id="rect1971"
       height="9.1710281"
       width="0.34783733"
       y="-739.60815"
       x="-5321.0312"
       style="opacity:0.5;fill:#58555d;stroke-width:0.84838372" />
  </g>
  <text
     xml:space="preserve"
     style="font-style:normal;font-weight:normal;font-size:92.6034317px;line-height:1.25;font-family:sans-serif;letter-spacing:0px;word-spacing:0px;fill:#000000;fill-opacity:1;stroke:none;stroke-width:2.31508565"
     x="607.11597"
     y="81.206665"
     id="text2241"><tspan
       sodipodi:role="line"
       id="tspan2239"
       x="607.11597"
       y="81.206665"
       style="font-style:normal;font-variant:normal;font-weight:normal;font-stretch:normal;line-height:98.84998322;font-family:Ubuntu;-inkscape-font-specification:Ubuntu;stroke-width:2.31508565">Adote um Pet</tspan></text>
</svg>
