<?xml version="1.0" encoding="UTF-8" standalone="no"?>
<svg
   xmlns:dc="http://purl.org/dc/elements/1.1/"
   xmlns:cc="http://creativecommons.org/ns#"
   xmlns:rdf="http://www.w3.org/1999/02/22-rdf-syntax-ns#"
   xmlns:svg="http://www.w3.org/2000/svg"
   xmlns="http://www.w3.org/2000/svg"
   xmlns:sodipodi="http://sodipodi.sourceforge.net/DTD/sodipodi-0.dtd"
   xmlns:inkscape="http://www.inkscape.org/namespaces/inkscape"
   id="a706cf1c-1654-439b-8fcf-310eb7aa0e00"
   data-name="Layer 1"
   width="550"
   viewBox="0 0 1540.8143 350"
   version="1.1"
   sodipodi:docname="not-found.svg"
   height="350"
   inkscape:version="0.92.3 (2405546, 2018-03-11)">
  <metadata
     id="metadata450">
    <rdf:RDF>
      <cc:Work
         rdf:about="">
        <dc:format>image/svg+xml</dc:format>
        <dc:type
           rdf:resource="http://purl.org/dc/dcmitype/StillImage" />
        <dc:title>not found</dc:title>
      </cc:Work>
    </rdf:RDF>
  </metadata>
  <defs
     id="defs448" />
  <sodipodi:namedview
     pagecolor="#ffffff"
     bordercolor="#666666"
     borderopacity="1"
     objecttolerance="10"
     gridtolerance="10"
     guidetolerance="10"
     inkscape:pageopacity="0"
     inkscape:pageshadow="2"
     inkscape:window-width="1360"
     inkscape:window-height="700"
     id="namedview446"
     showgrid="false"
     inkscape:zoom="0.67359472"
     inkscape:cx="311.60676"
     inkscape:cy="388.95792"
     inkscape:window-x="0"
     inkscape:window-y="0"
     inkscape:window-maximized="1"
     inkscape:current-layer="a706cf1c-1654-439b-8fcf-310eb7aa0e00" />
  <title
     id="title377">not found</title>
  <circle
     cx="408.06525"
     cy="-180.81786"
     r="64"
     id="circle379"
     style="fill:#ff6584" />
  <path
     d="m 719.4493,59.303882 c 0,151.011418 -89.77389,203.738948 -200.51559,203.738948 -110.7417,0 -200.51557,-52.72753 -200.51557,-203.738948 0,-151.011408 200.51557,-343.121742 200.51557,-343.121742 0,0 200.51559,192.110334 200.51559,343.121742 z"
     id="path381"
     inkscape:connector-curvature="0"
     style="fill:#f2f2f2" />
  <polygon
     points="316.674,237.861 252.547,139.704 315.646,257.508 309.671,371.654 309.493,368.625 235.565,265.329 309.269,379.328 308.522,393.603 308.388,393.818 308.449,394.99 293.29,684.589 313.544,684.589 315.974,535.005 389.496,421.285 316.156,523.761 318.21,397.378 403.674,241.024 318.532,377.552 319.455,320.725 378.357,207.605 319.699,305.687 321.359,203.481 384.433,113.423 321.621,187.409 322.658,0 316.138,248.096 "
     id="polygon383"
     style="fill:#3f3d56"
     transform="translate(195.47301,-283.81786)" />
  <path
     d="m 1316.0652,121.15375 c 0,123.60999 -73.4842,166.76999 -164.1315,166.76999 -90.6474,0 -164.13155,-43.16 -164.13155,-166.76999 0,-123.6100061 164.13155,-280.8615 164.13155,-280.8615 0,0 164.1315,157.2514639 164.1315,280.8615 z"
     id="path385"
     inkscape:connector-curvature="0"
     style="fill:#f2f2f2" />
  <polygon
     points="950.906,318.811 898.414,238.464 950.064,334.893 945.173,428.327 945.027,425.847 884.514,341.294 944.844,434.608 944.232,446.293 944.123,446.469 944.173,447.428 931.764,684.478 948.343,684.478 950.332,562.037 1010.514,468.952 950.482,552.833 952.162,449.383 1022.119,321.4 952.426,433.154 953.182,386.639 1001.396,294.044 953.382,374.329 954.741,290.669 1006.369,216.952 954.954,277.514 955.804,124.11 950.467,327.188 "
     id="polygon387"
     style="fill:#3f3d56"
     transform="translate(195.47301,-283.81786)" />
  <ellipse
     cx="750.06531"
     cy="396.66113"
     rx="554.59229"
     ry="28.03433"
     id="ellipse389"
     style="fill:#3f3d56" />
  <ellipse
     cx="1087.9178"
     cy="442.97876"
     rx="94.988579"
     ry="4.80162"
     id="ellipse391"
     style="fill:#3f3d56" />
  <ellipse
     cx="744.19263"
     cy="489.29633"
     rx="94.988579"
     ry="4.80162"
     id="ellipse393"
     style="fill:#3f3d56" />
  <ellipse
     cx="483.4173"
     cy="450.461"
     rx="217.01436"
     ry="10.96996"
     id="ellipse395"
     style="fill:#3f3d56" />
  <circle
     cx="292.55676"
     cy="282.452"
     r="79"
     id="circle397"
     style="fill:#2f2e41" />
  <rect
     x="259.86441"
     y="340.98535"
     width="24"
     height="43"
     transform="rotate(0.67509)"
     id="rect399"
     style="fill:#2f2e41" />
  <rect
     x="307.86438"
     y="340.98535"
     width="24"
     height="43"
     transform="rotate(0.67509)"
     id="rect401"
     style="fill:#2f2e41" />
  <ellipse
     cx="-384.48535"
     cy="279.86441"
     rx="7.5"
     ry="20"
     transform="rotate(-89.32491)"
     id="ellipse403"
     style="fill:#2f2e41" />
  <ellipse
     cx="-383.48535"
     cy="327.86441"
     rx="7.5"
     ry="20"
     transform="rotate(-89.32491)"
     id="ellipse405"
     style="fill:#2f2e41" />
  <circle
     cx="294.79227"
     cy="262.47696"
     r="27"
     id="circle407"
     style="fill:#ffffff" />
  <circle
     cx="294.79227"
     cy="262.47696"
     r="9"
     id="circle409"
     style="fill:#3f3d56" />
  <path
     d="m 216.79502,208.08644 c -6.04185,-28.64075 14.68758,-57.26483 46.30049,-63.93367 31.61291,-6.66884 62.13813,11.14292 68.18,39.78367 6.04187,28.64075 -14.97834,38.92999 -46.59124,45.59885 -31.6129,6.66886 -61.84739,7.1919 -67.88925,-21.44885 z"
     id="path411"
     inkscape:connector-curvature="0"
     style="fill:#1890ff" />
  <path
     d="m 413.06527,326.52418 c 0,55.07585 -32.73985,74.3063 -73.13,74.3063 q -1.40351,0 -2.80255,-0.0312 c -1.87139,-0.0401 -3.72494,-0.1292 -5.55619,-0.254 -36.45135,-2.57979 -64.77127,-22.79937 -64.77127,-74.02113 0,-53.00843 67.73872,-119.89611 72.827,-124.84632 l 0.009,-0.009 c 0.19608,-0.19159 0.29409,-0.28516 0.29409,-0.28516 0,0 73.13,70.06456 73.13,125.1404 z"
     id="path413"
     inkscape:connector-curvature="0"
     style="fill:#1890ff" />
  <path
     d="m 337.27082,392.40489 26.747,-37.37367 -26.81386,41.4773 -0.0712,4.29076 c -1.87139,-0.0401 -3.72494,-0.1292 -5.55619,-0.254 l 2.88282,-55.10258 -0.0223,-0.42775 0.049,-0.0802 0.27179,-5.20415 -26.88076,-41.5798 26.96539,37.67668 0.0624,1.105 2.17874,-41.63324 -23.0132,-42.96551 23.29391,35.6583 2.26789,-86.31418 0.009,-0.294 v 0.28516 l -0.37871,68.06399 22.91079,-26.98321 -23.00435,32.84678 -0.60595,37.27566 21.39143,-35.77416 -21.4805,41.259 -0.33863,20.723 31.05561,-49.79149 -31.17146,57.023 z"
     id="path415"
     inkscape:connector-curvature="0"
     style="fill:#3f3d56" />
  <circle
     cx="907.95807"
     cy="281.5975"
     r="79"
     id="circle417"
     style="fill:#2f2e41" />
  <rect
     x="749.17377"
     y="597.89832"
     width="24"
     height="43"
     transform="rotate(-17.08345)"
     id="rect419"
     style="fill:#2f2e41" />
  <rect
     x="797.17401"
     y="597.8988"
     width="24.000019"
     height="43.000034"
     transform="rotate(-17.083183)"
     id="rect421"
     style="fill:#2f2e41" />
  <ellipse
     cx="769.17383"
     cy="641.39832"
     rx="20"
     ry="7.5"
     transform="rotate(-17.08345)"
     id="ellipse423"
     style="fill:#2f2e41" />
  <ellipse
     cx="817.17371"
     cy="640.39832"
     rx="20"
     ry="7.5"
     transform="rotate(-17.08345)"
     id="ellipse425"
     style="fill:#2f2e41" />
  <circle
     cx="903.99457"
     cy="261.89236"
     r="27"
     id="circle427"
     style="fill:#ffffff" />
  <circle
     cx="903.99457"
     cy="261.89236"
     r="9"
     id="circle429"
     style="fill:#3f3d56" />
  <path
     d="m 813.1244,233.88323 c -14.48957,-25.43322 -3.47841,-59.01599 24.59412,-75.00919 28.07253,-15.9932 62.57592,-8.34055 77.06549,17.09268 14.48957,25.43323 -2.39072,41.6435 -30.46325,57.6367 -28.07253,15.99321 -56.70679,25.71304 -71.19636,0.27981 z"
     id="path431"
     inkscape:connector-curvature="0"
     style="fill:#1890ff" />
  <path
     d="m 767.06527,316.43882 c 0,50.55711 -30.05368,68.20979 -67.13,68.20979 q -1.28835,0 -2.57261,-0.0286 c -1.71785,-0.0368 -3.41933,-0.1186 -5.10033,-0.23313 -33.46068,-2.36813 -59.45707,-20.92878 -59.45707,-67.948 0,-48.65932 62.18106,-110.05915 66.85186,-114.60321 l 0.008,-0.008 c 0.18,-0.17587 0.27,-0.26177 0.27,-0.26177 0,0 67.12996,64.31602 67.12996,114.87313 z"
     id="path433"
     inkscape:connector-curvature="0"
     style="fill:#1890ff" />
  <path
     d="m 697.48943,376.91431 24.55253,-34.30732 -24.6139,38.07426 -0.0654,3.93872 c -1.71785,-0.0368 -3.41933,-0.1186 -5.10033,-0.23313 l 2.6463,-50.58165 -0.0205,-0.39266 0.045,-0.0736 0.24949,-4.77718 -24.67531,-38.16836 24.753,34.58547 0.0573,1.01433 2,-38.21741 -21.12507,-39.44039 21.38272,32.73269 2.08182,-79.23246 0.008,-0.26994 v 0.26177 l -0.34764,62.47961 21.031,-24.76934 -21.11693,30.15184 -0.55624,34.21735 19.63634,-32.839 -19.71812,37.87389 -0.31085,19.0228 28.50763,-45.70631 -28.614,52.34448 z"
     id="path435"
     inkscape:connector-curvature="0"
     style="fill:#3f3d56" />
  <path
     d="m 1031.0653,337.52418 c 0,55.07585 -32.73988,74.3063 -73.13003,74.3063 q -1.4035,0 -2.80255,-0.0312 c -1.87139,-0.0401 -3.72494,-0.1292 -5.55619,-0.254 -36.45135,-2.57979 -64.77127,-22.79937 -64.77127,-74.02113 0,-53.00843 67.73872,-119.89611 72.827,-124.84632 l 0.009,-0.009 c 0.19608,-0.19159 0.29409,-0.28516 0.29409,-0.28516 0,0 73.12995,70.06456 73.12995,125.1404 z"
     id="path437"
     inkscape:connector-curvature="0"
     style="fill:#1890ff" />
  <path
     d="m 955.27082,403.40489 26.747,-37.37367 -26.81386,41.4773 -0.0712,4.29076 c -1.87139,-0.0401 -3.72494,-0.1292 -5.55619,-0.254 l 2.88282,-55.10258 -0.0223,-0.42775 0.049,-0.0802 0.27179,-5.20415 -26.88069,-41.57977 26.96539,37.67668 0.0624,1.105 2.17874,-41.63324 -23.0132,-42.96551 23.29391,35.6583 2.26789,-86.31418 0.009,-0.294 v 0.28516 l -0.37871,68.06399 22.91079,-26.98321 -23.00435,32.84678 -0.606,37.27566 21.39141,-35.77419 -21.4805,41.259 -0.33863,20.723 31.05561,-49.79149 -31.17146,57.023 z"
     id="path439"
     inkscape:connector-curvature="0"
     style="fill:#3f3d56" />
  <ellipse
     cx="94.076256"
     cy="926.3374"
     rx="12.40027"
     ry="39.5"
     transform="rotate(-64.62574)"
     id="ellipse441"
     style="fill:#2f2e41" />
  <ellipse
     cx="-185.11284"
     cy="363.23056"
     rx="12.40027"
     ry="39.5"
     transform="rotate(-68.15829)"
     id="ellipse443"
     style="fill:#2f2e41" />
  <text
     xml:space="preserve"
     style="font-style:normal;font-weight:normal;font-size:57.3852005px;line-height:1.25;font-family:sans-serif;letter-spacing:0px;word-spacing:0px;fill:#000000;fill-opacity:1;stroke:none;stroke-width:1.43463004"
     x="39.197834"
     y="598.89514"
     id="text454"><tspan
       sodipodi:role="line"
       id="tspan452"
       x="39.197834"
       y="598.89514"
       style="font-style:normal;font-variant:normal;font-weight:normal;font-stretch:normal;font-family:Ubuntu;-inkscape-font-specification:Ubuntu;stroke-width:1.43463004">Pets não encontrados, ainda não chegamos a sua cidade.</tspan></text>
</svg>
