<svg xmlns="http://www.w3.org/2000/svg" xmlns:svg="http://www.w3.org/2000/svg" id="a706cf1c-1654-439b-8fcf-310eb7aa0e00" width="550" height="350" data-name="Layer 1" version="1.1" viewBox="0 0 1540.814 350"><metadata id="metadata450"/><title id="title377">not found</title><circle id="circle379" cx="408.065" cy="-180.818" r="64" style="fill:#ff6584"/><path id="path381" d="m 719.4493,59.303882 c 0,151.011418 -89.77389,203.738948 -200.51559,203.738948 -110.7417,0 -200.51557,-52.72753 -200.51557,-203.738948 0,-151.011408 200.51557,-343.121742 200.51557,-343.121742 0,0 200.51559,192.110334 200.51559,343.121742 z" style="fill:#f2f2f2"/><polygon id="polygon383" points="316.674 237.861 252.547 139.704 315.646 257.508 309.671 371.654 309.493 368.625 235.565 265.329 309.269 379.328 308.522 393.603 308.388 393.818 308.449 394.99 293.29 684.589 313.544 684.589 315.974 535.005 389.496 421.285 316.156 523.761 318.21 397.378 403.674 241.024 318.532 377.552 319.455 320.725 378.357 207.605 319.699 305.687 321.359 203.481 384.433 113.423 321.621 187.409 322.658 0 316.138 248.096" transform="translate(195.47301,-283.81786)" style="fill:#3f3d56"/><path id="path385" d="m 1316.0652,121.15375 c 0,123.60999 -73.4842,166.76999 -164.1315,166.76999 -90.6474,0 -164.13155,-43.16 -164.13155,-166.76999 0,-123.6100061 164.13155,-280.8615 164.13155,-280.8615 0,0 164.1315,157.2514639 164.1315,280.8615 z" style="fill:#f2f2f2"/><polygon id="polygon387" points="950.906 318.811 898.414 238.464 950.064 334.893 945.173 428.327 945.027 425.847 884.514 341.294 944.844 434.608 944.232 446.293 944.123 446.469 944.173 447.428 931.764 684.478 948.343 684.478 950.332 562.037 1010.514 468.952 950.482 552.833 952.162 449.383 1022.119 321.4 952.426 433.154 953.182 386.639 1001.396 294.044 953.382 374.329 954.741 290.669 1006.369 216.952 954.954 277.514 955.804 124.11 950.467 327.188" transform="translate(195.47301,-283.81786)" style="fill:#3f3d56"/><ellipse id="ellipse389" cx="750.065" cy="396.661" rx="554.592" ry="28.034" style="fill:#3f3d56"/><ellipse id="ellipse391" cx="1087.918" cy="442.979" rx="94.989" ry="4.802" style="fill:#3f3d56"/><ellipse id="ellipse393" cx="744.193" cy="489.296" rx="94.989" ry="4.802" style="fill:#3f3d56"/><ellipse id="ellipse395" cx="483.417" cy="450.461" rx="217.014" ry="10.97" style="fill:#3f3d56"/><circle id="circle397" cx="292.557" cy="282.452" r="79" style="fill:#2f2e41"/><rect id="rect399" width="24" height="43" x="259.864" y="340.985" transform="rotate(0.67509)" style="fill:#2f2e41"/><rect id="rect401" width="24" height="43" x="307.864" y="340.985" transform="rotate(0.67509)" style="fill:#2f2e41"/><ellipse id="ellipse403" cx="-384.485" cy="279.864" rx="7.5" ry="20" transform="rotate(-89.32491)" style="fill:#2f2e41"/><ellipse id="ellipse405" cx="-383.485" cy="327.864" rx="7.5" ry="20" transform="rotate(-89.32491)" style="fill:#2f2e41"/><circle id="circle407" cx="294.792" cy="262.477" r="27" style="fill:#fff"/><circle id="circle409" cx="294.792" cy="262.477" r="9" style="fill:#3f3d56"/><path id="path411" d="m 216.79502,208.08644 c -6.04185,-28.64075 14.68758,-57.26483 46.30049,-63.93367 31.61291,-6.66884 62.13813,11.14292 68.18,39.78367 6.04187,28.64075 -14.97834,38.92999 -46.59124,45.59885 -31.6129,6.66886 -61.84739,7.1919 -67.88925,-21.44885 z" style="fill:#1890ff"/><path id="path413" d="m 413.06527,326.52418 c 0,55.07585 -32.73985,74.3063 -73.13,74.3063 q -1.40351,0 -2.80255,-0.0312 c -1.87139,-0.0401 -3.72494,-0.1292 -5.55619,-0.254 -36.45135,-2.57979 -64.77127,-22.79937 -64.77127,-74.02113 0,-53.00843 67.73872,-119.89611 72.827,-124.84632 l 0.009,-0.009 c 0.19608,-0.19159 0.29409,-0.28516 0.29409,-0.28516 0,0 73.13,70.06456 73.13,125.1404 z" style="fill:#1890ff"/><path id="path415" d="m 337.27082,392.40489 26.747,-37.37367 -26.81386,41.4773 -0.0712,4.29076 c -1.87139,-0.0401 -3.72494,-0.1292 -5.55619,-0.254 l 2.88282,-55.10258 -0.0223,-0.42775 0.049,-0.0802 0.27179,-5.20415 -26.88076,-41.5798 26.96539,37.67668 0.0624,1.105 2.17874,-41.63324 -23.0132,-42.96551 23.29391,35.6583 2.26789,-86.31418 0.009,-0.294 v 0.28516 l -0.37871,68.06399 22.91079,-26.98321 -23.00435,32.84678 -0.60595,37.27566 21.39143,-35.77416 -21.4805,41.259 -0.33863,20.723 31.05561,-49.79149 -31.17146,57.023 z" style="fill:#3f3d56"/><circle id="circle417" cx="907.958" cy="281.598" r="79" style="fill:#2f2e41"/><rect id="rect419" width="24" height="43" x="749.174" y="597.898" transform="rotate(-17.08345)" style="fill:#2f2e41"/><rect id="rect421" width="24" height="43" x="797.174" y="597.899" transform="rotate(-17.083183)" style="fill:#2f2e41"/><ellipse id="ellipse423" cx="769.174" cy="641.398" rx="20" ry="7.5" transform="rotate(-17.08345)" style="fill:#2f2e41"/><ellipse id="ellipse425" cx="817.174" cy="640.398" rx="20" ry="7.5" transform="rotate(-17.08345)" style="fill:#2f2e41"/><circle id="circle427" cx="903.995" cy="261.892" r="27" style="fill:#fff"/><circle id="circle429" cx="903.995" cy="261.892" r="9" style="fill:#3f3d56"/><path id="path431" d="m 813.1244,233.88323 c -14.48957,-25.43322 -3.47841,-59.01599 24.59412,-75.00919 28.07253,-15.9932 62.57592,-8.34055 77.06549,17.09268 14.48957,25.43323 -2.39072,41.6435 -30.46325,57.6367 -28.07253,15.99321 -56.70679,25.71304 -71.19636,0.27981 z" style="fill:#1890ff"/><path id="path433" d="m 767.06527,316.43882 c 0,50.55711 -30.05368,68.20979 -67.13,68.20979 q -1.28835,0 -2.57261,-0.0286 c -1.71785,-0.0368 -3.41933,-0.1186 -5.10033,-0.23313 -33.46068,-2.36813 -59.45707,-20.92878 -59.45707,-67.948 0,-48.65932 62.18106,-110.05915 66.85186,-114.60321 l 0.008,-0.008 c 0.18,-0.17587 0.27,-0.26177 0.27,-0.26177 0,0 67.12996,64.31602 67.12996,114.87313 z" style="fill:#1890ff"/><path id="path435" d="m 697.48943,376.91431 24.55253,-34.30732 -24.6139,38.07426 -0.0654,3.93872 c -1.71785,-0.0368 -3.41933,-0.1186 -5.10033,-0.23313 l 2.6463,-50.58165 -0.0205,-0.39266 0.045,-0.0736 0.24949,-4.77718 -24.67531,-38.16836 24.753,34.58547 0.0573,1.01433 2,-38.21741 -21.12507,-39.44039 21.38272,32.73269 2.08182,-79.23246 0.008,-0.26994 v 0.26177 l -0.34764,62.47961 21.031,-24.76934 -21.11693,30.15184 -0.55624,34.21735 19.63634,-32.839 -19.71812,37.87389 -0.31085,19.0228 28.50763,-45.70631 -28.614,52.34448 z" style="fill:#3f3d56"/><path id="path437" d="m 1031.0653,337.52418 c 0,55.07585 -32.73988,74.3063 -73.13003,74.3063 q -1.4035,0 -2.80255,-0.0312 c -1.87139,-0.0401 -3.72494,-0.1292 -5.55619,-0.254 -36.45135,-2.57979 -64.77127,-22.79937 -64.77127,-74.02113 0,-53.00843 67.73872,-119.89611 72.827,-124.84632 l 0.009,-0.009 c 0.19608,-0.19159 0.29409,-0.28516 0.29409,-0.28516 0,0 73.12995,70.06456 73.12995,125.1404 z" style="fill:#1890ff"/><path id="path439" d="m 955.27082,403.40489 26.747,-37.37367 -26.81386,41.4773 -0.0712,4.29076 c -1.87139,-0.0401 -3.72494,-0.1292 -5.55619,-0.254 l 2.88282,-55.10258 -0.0223,-0.42775 0.049,-0.0802 0.27179,-5.20415 -26.88069,-41.57977 26.96539,37.67668 0.0624,1.105 2.17874,-41.63324 -23.0132,-42.96551 23.29391,35.6583 2.26789,-86.31418 0.009,-0.294 v 0.28516 l -0.37871,68.06399 22.91079,-26.98321 -23.00435,32.84678 -0.606,37.27566 21.39141,-35.77419 -21.4805,41.259 -0.33863,20.723 31.05561,-49.79149 -31.17146,57.023 z" style="fill:#3f3d56"/><ellipse id="ellipse441" cx="94.076" cy="926.337" rx="12.4" ry="39.5" transform="rotate(-64.62574)" style="fill:#2f2e41"/><ellipse id="ellipse443" cx="-185.113" cy="363.231" rx="12.4" ry="39.5" transform="rotate(-68.15829)" style="fill:#2f2e41"/><text style="font-style:normal;font-weight:400;font-size:57.3852005px;line-height:1.25;font-family:sans-serif;letter-spacing:0;word-spacing:0;fill:#000;fill-opacity:1;stroke:none;stroke-width:1.43463004" id="text454" x="39.198" y="598.895" xml:space="preserve"><tspan id="tspan452" x="39.198" y="598.895" style="font-style:normal;font-variant:normal;font-weight:400;font-stretch:normal;font-family:Ubuntu;-inkscape-font-specification:Ubuntu;stroke-width:1.43463004">Pets não encontrados, ainda não chegamos a sua cidade.</tspan></text></svg>